<?xml version="1.0" encoding="UTF-8" standalone="no"?>
<svg
   id="svgLogo"
   version="1.0"
   viewBox="0 0 346 59"
   sodipodi:docname="new.svg"
   inkscape:version="1.2.1 (9c6d41e410, 2022-07-14, custom)"
   xmlns:inkscape="http://www.inkscape.org/namespaces/inkscape"
   xmlns:sodipodi="http://sodipodi.sourceforge.net/DTD/sodipodi-0.dtd"
   xmlns="http://www.w3.org/2000/svg"
   xmlns:svg="http://www.w3.org/2000/svg">
  <defs
     id="defs631" />
  <sodipodi:namedview
     id="namedview629"
     pagecolor="#ffffff"
     bordercolor="#666666"
     borderopacity="1.0"
     inkscape:showpageshadow="2"
     inkscape:pageopacity="0.0"
     inkscape:pagecheckerboard="0"
     inkscape:deskcolor="#d1d1d1"
     showgrid="false"
     inkscape:zoom="10.937675"
     inkscape:cx="300.74948"
     inkscape:cy="28.068123"
     inkscape:window-width="1920"
     inkscape:window-height="1011"
     inkscape:window-x="0"
     inkscape:window-y="0"
     inkscape:window-maximized="1"
     inkscape:current-layer="svgLogo" />
  <g
     id="clips"
     fill="#363c90">
    <clipPath
       id="c01">
      <path
         id="l01"
         d="m7 12.7c0 2.7-0.9 9.7-2.1 15.8-1.9 10.6-3 17.2-4.3 26.2l-0.6 4.3h12.4c11.5 0 15.4-0.8 12.5-2.6-0.6-0.3-5.8-0.6-11.6-0.5l-10.6 0.2 0.7-6.6c0.4-3.7 1.5-11.7 2.6-17.8 2.8-16.7 3.5-23.7 2.1-23.7-0.6 0-1.1 1.9-1.1 4.7z" />
    </clipPath>
    <clipPath
       id="c02">
      <path
         id="l02"
         d="m23 15.7c0 4.5-2.2 26.2-3 29.6-0.5 2.3-0.4 3.9 0.2 4.3 2 1.3 2.8-1.4 3.3-11.6 0.2-5.8 0.8-13.5 1.1-17.3 0.5-4.7 0.3-6.7-0.5-6.7-0.6 0-1.1 0.8-1.1 1.7z" />
    </clipPath>
    <path
       id="d02"
       d="m25.8 3.5c-1 2.2-0.9 2.9 0.8 4.6 1.8 1.7 2.2 1.8 3.9 0.5 1.6-1.2 1.8-1.9 1-4.2-1.4-3.8-4.1-4.3-5.7-0.9z" />
    <clipPath
       id="c03">
      <path
         id="l03"
         d="m40 12.2c0 0.2-0.2 3.5-0.5 7.3-0.5 7.4-3.8 20-7.9 30-2.2 5.5-2.5 8.9-0.6 6.8 2.2-2.2 8.5-22.9 9.6-31 0.6-4.7 0.9-5.3 1.5-3.3 0.4 1.4 0.8 6.1 0.9 10.5 0.2 9.4 1.9 15.9 4.2 16.3 1.3 0.2 1.9-0.7 2.4-3.5 0.6-3.8 11.1-24.3 12.4-24.3 0.4 0 0.1 3.8-0.6 8.5-2 13.6-2.6 26.3-1.2 27.1 0.6 0.4 1.7-0.1 2.5-1.2 1.2-1.6 1.2-2 0-2.9-1.9-1.4-0.5-21.8 2.3-32.3 0.9-3.4 0.4-6.2-1-6.2-0.7 0-7.1 10.9-13.5 23.2-1.7 3.2-3.3 5.8-3.7 5.8-1.4 0-2.8-9.9-2.6-18 0.2-8.2-1-13-3.2-13-0.6 0-1 0.1-1 0.2z" />
    </clipPath>
    <clipPath
       id="c04">
      <path
         id="l04"
         d="m94.7 16.6c-0.3 0.4-0.2 1.6 0.4 2.6 0.6 1.2 0.8 3.9 0.5 6.2-0.9 6-6 21.7-7.2 21.9-1.8 0.4-6.4-10.9-8.2-20.3-1.4-6.9-2.3-9.6-3.5-9.8-2.1-0.4-2.4 1.4-3.1 15.8-0.5 10.4-1.7 19.4-3.2 24.3-0.5 1.4-0.1 1.8 1.3 1.5 1.3-0.2 1.8-1.3 2-4.3 0.2-6.4 2.5-27.9 3-29.5 0.3-0.8 1.4 2.3 2.5 7 2.1 9.4 8.3 23 10.4 23 0.9 0 1.4-1.2 1.4-3.3 0-1.8 1.4-7.3 3.1-12.3 3.6-10.5 5.1-23.4 2.7-23.4-0.8 0-1.8 0.3-2.1 0.6z" />
    </clipPath>
    <clipPath
       id="c05">
      <path
         id="l05"
         d="m106.6 20.5c-0.4 1.4-0.4 3.5-0.1 4.7 0.3 1.3-0.5 8.8-1.9 16.8-1.3 8-2.2 14.8-1.9 15.3 0.9 1.6 2.3-0.5 2.3-3.6 0-1.8 1.1-10.1 2.5-18.5s2.3-15.7 2-16.3c-1.1-1.6-2.3-1-2.9 1.6z" />
    </clipPath>
    <clipPath
       id="cd05">
      <path
         id="d05"
         d="m112.5 2.8c-1.1 0.2-2.6 0.9-3.2 1.4-1.9 1.5-1.6 7.4 0.4 9.3 1.6 1.6 1.7 1.6 3-0.1 1.9-2.5 3.6-9.5 2.6-10.4-0.4-0.3-1.7-0.5-2.8-0.2zm0.5 4.9c0 0.5-0.5 1.5-1 2.3-0.8 1.2-1 1.1-1-0.8 0-1.2 0.5-2.2 1-2.2 0.6 0 1 0.3 1 0.7z" />
    </clipPath>
    <clipPath
       id="c06">
      <path
         id="l06"
         d="m118.7 25.3c-2.8 10.8-3.4 23-1.3 26.2 3.9 5.9 9 1.8 13.2-10.7 2.8-8 3.1-15.4 0.9-18.5-1.3-1.9-6.9-4.3-10-4.3-0.5 0-1.8 3.3-2.8 7.3zm10.4-2.2c1.9 1.9 2.1 3 1.6 7.8-0.6 6.4-3.9 16-6.8 19.3l-1.9 2.3-2-2.4c-1.5-1.7-2-3.8-2-8 0-6.2 2.4-17.7 4.2-19.8 1.6-1.9 4.5-1.6 6.9 0.8z" />
    </clipPath>
    <clipPath
       id="c07">
      <path
         id="l07"
         d="m142.5 15.2c-0.4 0.9-0.5 2.1-0.2 2.5 1 1.6-1.4 12.6-4.8 22.5-1.9 5.6-3.5 11.5-3.4 13.2 0 2 1.7-1.9 4.6-10.9 2.4-7.7 4.7-14.7 5-15.5 0.4-0.8 1.4 2.6 2.4 7.5 1.9 9.7 4.9 18.5 6.5 18.8 0.5 0.1 2.9-7.2 5.3-16.3s4.8-16.8 5.4-17.1c1.4-1 0.1-3.9-1.8-3.9-0.9 0-1.5 0.9-1.5 2.5 0 3-5.5 24.8-6.9 27.3-0.8 1.5-1.2 1.2-2.4-1.8-1.5-3.6-4.7-20.1-4.7-24.3 0-1.3-0.6-3.2-1.4-4.3-1.3-1.7-1.5-1.8-2.1-0.2z" />
    </clipPath>
    <clipPath
       id="c08">
      <path
         id="l08"
         d="m181.5 6.2c-1.1 3.4-5.3 12.3-9.4 19.7-10.7 19.6-14.3 28.1-11.8 28.1 0.7 0 2-2.6 3-5.8 1-3.1 3-7.9 4.5-10.7 2.3-4.2 3.4-5.1 7.4-6.4 7.4-2.2 8.2-1.4 7.2 7.2-1.2 10.8-1.1 14.2 0.4 14.2 0.9 0 1.3-2.8 1.5-10.3 0.2-7.6 0.6-10.5 1.7-11.2 1.2-0.7 1.2-1.3 0.1-3.4-1.1-1.9-1.2-5.3-0.7-15 0.6-10.2 0.5-12.6-0.6-12.6-0.7 0-2.2 2.7-3.3 6.2zm1.5 12.3v9.5h-9.7l4.6-9.5c2.5-5.2 4.7-9.4 4.9-9.5 0.1 0 0.2 4.3 0.2 9.5z" />
    </clipPath>
    <clipPath
       id="c09">
      <path
         id="l09"
         d="m195.6 20.2c-3.2 5.1-3 8.5 0.9 16.3 2.1 4.1 3.5 8.1 3.2 8.9-0.4 0.9-2.9 3.2-5.7 5.2-6.4 4.6-7 7.9-0.6 3.5 4.5-3.1 9.6-8.5 9.6-10.2 0-0.6-1.6-4-3.5-7.8-4-7.7-4.3-10.8-1.5-13.9 1.1-1.2 2-2.6 2-3.2 0-1.8-2.9-1-4.4 1.2z" />
    </clipPath>
    <path
       id="l10"
       d="m237.6 8.1c-0.8 4.1-12.9 36.9-13.6 36.9-0.6 0-5-26.4-5-30.2 0-3.2-1-5.9-1.9-5.4-0.4 0.3 0.5 8.7 2 18.8s2.8 20.2 2.8 22.5c0.1 3.1 0.5 4.3 1.6 4.3 1 0 1.5-1 1.5-3 0-1.7 1.6-7.5 3.6-12.8 1.9-5.3 5-13.5 6.7-18.2s3.7-9.4 4.4-10.5c1.7-2.5 1.7-5.5-0.1-5.5-0.7 0-1.6 1.4-2 3.1z" />
    <path
       id="l11"
       d="m241.7 30.8c-0.4 5.4-1 12-1.3 14.6-0.6 3.9-0.4 4.8 0.7 4.4 0.9-0.3 1.4-2.1 1.5-4.9 0.1-2.4 0.5-8.8 0.9-14.2 0.5-6.3 0.4-9.7-0.2-9.7s-1.3 4.4-1.6 9.8z" />
    <path
       id="d11"
       d="m243.4 10.5c-1.3 5.3 2.8 7.9 4.6 2.9 1.6-4.1 1.2-5.4-1.5-5.4-1.8 0-2.6 0.7-3.1 2.5z" />
    <path
       id="l12"
       d="m256 16.9c0 5.3-2.6 27.1-4 33.6-0.5 2.2-0.7 4.1-0.5 4.4 0.3 0.2 2.9-0.4 5.9-1.3 3.1-1 7.2-1.6 9.3-1.4 3 0.2 3.8-0.1 4.1-1.5s-0.1-1.7-2-1.3c-1.3 0.3-5 0.8-8.2 1.1l-5.9 0.7 0.7-8.9c0.3-4.8 1.3-13 2.2-18.1 1.6-9.3 1.4-12.2-0.6-12.2-0.5 0-1 2.2-1 4.9z" />
    <path
       id="l13"
       d="m277.6 46.09 1.894-5.101c-0.437 0.4554-0.8061 0.6814-1.126 0.7061-1.1 0.1-3.899 0.5009-6.299 0.9009l-4.4 0.6987 0.5991-10.4c0.4-5.7 1.101-11.9 1.601-13.6 0.6-2.1 0.6-3.499 0-3.899-0.6-0.3-1.2-0.4003-1.4-0.3003-0.2 0.2-0.9999 6.2-1.9 13.4-0.9 7.1-1.9 14.3-2.2 15.9-0.6 2.7-0.4998 2.801 2.2 2.301 1.6-0.2 4.3-0.9 6-1.5 3.022-0.9299 4.962-0.5394 5.032 0.8936z" />
    <path
       id="l14"
       d="m296.2 6.149c-0.7649 0.0146-1.389 0.4003-1.551 1.05-0.2 0.7-0.9011 3.301-1.601 5.801-0.7 2.5-3.799 9.9-6.999 16.5-3.165 6.556-5.138 10.1-6.475 11.49l-1.894 5.101c0.0202 0.4163-0.117 0.9206-0.4321 1.506-1.8 3.6-2.299 7.4-0.999 7.4 0.7 0 2.199-2.801 3.299-6.201l2.001-6.1h6.5l6.5 0.09961 0.3003 5.101c0.2 3.6 0.7007 5.099 1.701 5.099 1.1 0 1.4-1.799 1.2-8.799-0.1-4.8-7.5e-4 -15.2 0.1992-23.2 0.4-12.9 0.2003-14.5-1.2-14.8-0.1875-0.0375-0.3713-0.05464-0.5479-0.05127zm-0.7515 7.351 0.3999 4.5c0.2 2.5 0.0997 8.2-0.3003 12.8-0.6 7.3-0.9993 8.4-2.799 9.1-1.9 0.7-8.6 0.6008-9.3-0.1992-0.2-0.1 1.4-3.601 3.5-7.701 2-4.1 4.8-9.999 6.1-13z" />
    <path
       id="l15"
       d="m313.9 16c-2.7 1.6-6 10.6-8 22.4-2.3 13.4-2.3 13.1-0.3 15 2.2 2.3 4.1 2 6.9-1 2.2-2.3 6.6-13.2 8-19.7 0.4-2 1.1-2.7 3-2.7 3 0 3.9-1.4 2.1-2.9-2-1.7-13.6 0.7-13.6 2.7 0 1 0.9 1.3 3 1 2.7-0.4 3-0.2 3 2.4 0 3.7-4.6 15.2-7 17.3-1 0.9-2.4 1.4-2.9 1-2.9-1.7 0.6-23 4.8-29.9 2.3-3.6 4-4 4.2-0.8 0 1.3 0.3 1.2 1.1-0.5s0.8-2.6-0.2-3.8c-1.4-1.7-1.9-1.8-4.1-0.5z" />
    <path
       id="l16"
       d="m337.5 12.7c-2.7 0.2-5.3 0.8-5.8 1.2-0.4 0.4-0.9 5.2-1.2 10.7-0.2 5.4-1.1 14.4-2 19.8-1.5 10.2-1.1 13.1 1.8 10.8 0.8-0.7 3.8-1.4 6.8-1.5 4-0.3 5.5-0.8 5.7-2 0.3-1.6-0.6-1.6-10-0.2-2.6 0.4-2.8 0.2-2.8-2.8 0.1-1.7 0.6-7 1.3-11.6 1.4-9 2-9.9 8-10 1.6-0.1 2.7-0.7 2.7-1.5 0-2.1-2-3-3.3-1.7-0.6 0.6-2.1 1.1-3.4 1.1-2 0-2.3-0.5-2.3-3.9 0-2.2 0.5-4.3 1-4.6 0.6-0.4 3.5-0.9 6.5-1.2 3.7-0.4 5.5-1 5.5-1.9 0-0.8-0.8-1.3-1.7-1.2-1 0.1-4 0.3-6.8 0.5z" />
  </g>
  <g
     id="g123"
     fill="none"
     stroke="#363c90"
     stroke-linecap="round"
     stroke-linejoin="round">
    <path
       id="p01"
       d="m8.2097 7.6579-6.6563 49.818 24.172-0.0948"
       clip-path="url(#c01)"
       stroke-width="3.5" />
    <path
       id="p02"
       d="m24.071 14.147-3.0589 35.652z"
       clip-path="url(#c02)"
       stroke-width="3.7" />
    <path
       id="p03"
       d="m30.105 56.791 11.187-44.369 5.1466 34.752 17.723-32.649-3.2084 42.387"
       clip-path="url(#c03)"
       stroke-width="5.3" />
    <path
       id="p04"
       d="m71.6 59.053 4.2993-41.661 12.943 37.179 7.0592-23.992 0.28736-14.985"
       clip-path="url(#c04)"
       stroke-width="4.5" />
    <path
       id="p05"
       d="m108.58 18.068-5.3032 39.804"
       clip-path="url(#c05)"
       stroke-width="5" />
    <path
       id="pd05"
       d="m110.37 14.716-1.1446-9.4839 5.396-0.49055-1.0628 5.4778-2.698 4.415"
       clip-path="url(#cd05)"
       stroke-width="5" />
    <path
       id="p06"
       d="m120.51 54.287-3.5974-6.2954 4.4149-28.779 9.8927 3.9244 0.49055 11.773-6.7859 17.169-3.5974 2.1257"
       clip-path="url(#c06)"
       stroke-width="5" />
    <path
       id="p07"
       d="m134.01 54.227 9.9436-38.271 7.6311 37.231 11.1-37.578"
       clip-path="url(#c07)"
       stroke-width="5" />
    <path
       id="p081"
       d="m160.37 52.724 24.281-51.337-1.3875 51.568"
       stroke-width="3.7"
       clip-path="url(#c08)" />
    <path
       id="p082"
       d="m171.35 30.293 14.8-1.5031"
       stroke-width="4.6"
       clip-path="url(#c08)" />
    <path
       id="p09"
       d="m198.53 19.193-4.1624 7.3999 7.3999 18.268-11.909 10.753"
       stroke-width="4.4"
       clip-path="url(#c09)" />
  </g>
  <path
     style="fill:none;stroke:#000000;stroke-width:7.23825389;stroke-linecap:butt;stroke-linejoin:miter;stroke-opacity:1"
     d="M 329.33514,27.429277 342.5724,24.499352"
     id="path2067"
     inkscape:label="p162" />
  <path
     style="fill:none;stroke:#000000;stroke-width:3.25793;stroke-linecap:butt;stroke-linejoin:miter;stroke-opacity:1"
     d="m 346.00189,13.081479 -13.23033,1.694493 -3.81858,38.292354 0.24101,1.314025 2.47171,-1.652562 11.44682,-1.061686"
     id="path2065"
     sodipodi:nodetypes="cccccc"
     inkscape:label="p161" />
  <path
     style="fill:none;stroke:#000000;stroke-width:4.87199755;stroke-linecap:butt;stroke-linejoin:miter;stroke-opacity:1"
     d="m 311.84464,29.636876 15.31932,-1.952045"
     id="path2063"
     sodipodi:nodetypes="cc"
     inkscape:label="p152" />
  <path
     style="fill:none;stroke:#000000;stroke-width:4.87199;stroke-linecap:round;stroke-linejoin:miter;stroke-opacity:1"
     d="m 318.51452,21.31296 -2.66202,-5.942754 -6.19674,9.325119 -4.52069,26.614351 3.87718,2.495245 5.27718,-5.518433 5.25981,-17.652056"
     id="path1598"
     sodipodi:nodetypes="ccccccc"
     inkscape:label="p151" />
  <path
     style="fill:none;stroke:#000000;stroke-width:7.23825389;stroke-linecap:butt;stroke-linejoin:miter;stroke-opacity:1"
     d="m 280.0297,40.724321 18.13866,-0.06689"
     id="path1595"
     inkscape:label="p142" />
  <path
     style="display:inline;fill:none;stroke:#000000;stroke-width:3.458;stroke-linecap:butt;stroke-linejoin:miter;stroke-opacity:1;stroke-dasharray:none"
     d="M 275.06808,55.126227 296.53147,6.2709939 296.17981,53.215501"
     id="path819"
     sodipodi:nodetypes="ccc"
     inkscape:label="p141" />
  <path
     style="fill:none;stroke:#000000;stroke-width:4.872;stroke-linecap:butt;stroke-linejoin:miter;stroke-opacity:1"
     d="m 270.02254,15.019204 -4.32733,31.468578 14.17663,-2.801921"
     id="path339"
     inkscape:label="p13" />
  <path
     style="display:inline;fill:none;stroke:#000000;stroke-width:4.82662;stroke-linecap:butt;stroke-linejoin:miter;stroke-opacity:1"
     d="M 258.89319,11.737554 252.2777,54.109337 272.35897,50.79251"
     id="path337"
     inkscape:label="p12" />
  <path
     style="display:inline;fill:none;stroke:#000000;stroke-width:4.872;stroke-linecap:butt;stroke-linejoin:miter;stroke-opacity:1"
     d="m 243.93059,20.260174 -2.65186,30.817194"
     id="path335"
     inkscape:label="p11" />
  <path
     style="display:inline;fill:none;stroke:#000000;stroke-width:4.92541;stroke-linecap:butt;stroke-linejoin:miter;stroke-opacity:1"
     d="m 217.22013,7.783815 6.08635,48.10308 18.41897,-52.791438"
     id="path216"
     inkscape:label="p10" />
</svg>
