<svg id="svg" viewBox="0 0 1440 400" xmlns="http://www.w3.org/2000/svg" preserveAspectRatio="none">
<path d="M 0,400 C 0,400 0,80 0,80 C 87.91387559808612,88.73684210526315 175.82775119617224,97.47368421052632 256,98 C 336.17224880382776,98.52631578947368 408.6028708133971,90.8421052631579 523,82 C 637.3971291866029,73.1578947368421 793.7607655502393,63.157894736842096 905,59 C 1016.2392344497607,54.842105263157904 1082.3540669856459,56.526315789473685 1164,61 C 1245.6459330143541,65.47368421052632 1342.8229665071772,72.73684210526315 1440,80 C 1440,80 1440,400 1440,400 Z" stroke="none" stroke-width="0" fill="#8ed1fc" fill-opacity="0.265" class="wave-path path-0"></path>
<path d="M 0,400 C 0,400 0,160 0,160 C 77.20574162679426,167.1004784688995 154.41148325358853,174.20095693779902 254,165 C 353.58851674641147,155.79904306220098 475.5598086124402,130.29665071770336 591,131 C 706.4401913875598,131.70334928229664 815.3492822966507,158.61244019138755 902,164 C 988.6507177033493,169.38755980861245 1053.043062200957,153.25358851674642 1139,149 C 1224.956937799043,144.74641148325358 1332.4784688995214,152.3732057416268 1440,160 C 1440,160 1440,400 1440,400 Z" stroke="none" stroke-width="0" fill="#8ed1fc" fill-opacity="0.4" class="wave-path path-1"></path>
<path d="M 0,400 C 0,400 0,240 0,240 C 106.24880382775117,254.17224880382773 212.49760765550235,268.34449760765546 299,266 C 385.50239234449765,263.65550239234454 452.2583732057417,244.79425837320576 542,247 C 631.7416267942583,249.20574162679424 744.4688995215312,272.47846889952154 840,266 C 935.5311004784688,259.52153110047846 1013.8660287081341,223.2918660287081 1111,214 C 1208.133971291866,204.7081339712919 1324.066985645933,222.35406698564594 1440,240 C 1440,240 1440,400 1440,400 Z" stroke="none" stroke-width="0" fill="#8ed1fc" fill-opacity="0.53" class="wave-path path-2"></path>
<path d="M 0,400 C 0,400 0,320 0,320 C 117.88516746411483,303.28229665071774 235.77033492822966,286.5645933014354 340,292 C 444.22966507177034,297.4354066985646 534.8038277511962,325.02392344497605 625,334 C 715.1961722488038,342.97607655502395 805.0143540669857,333.33971291866027 890,330 C 974.9856459330143,326.66028708133973 1055.1387559808613,329.61722488038276 1146,329 C 1236.8612440191387,328.38277511961724 1338.4306220095693,324.1913875598086 1440,320 C 1440,320 1440,400 1440,400 Z" stroke="none" stroke-width="0" fill="#8ed1fc" fill-opacity="1" class="wave-path path-3"></path>
</svg>
