<svg version="1.1" viewBox="0 0 175 260" xmlns="http://www.w3.org/2000/svg">
  <path d="m92-0.1c38 2.7 30 39 7.2 46-35-4.3-27-38-7.2-46"/>
  <path d="m91 6.4c34-8.3 34 34 11 38-11 1.7-29-1.2-26-22 0.78-6.4 4.3-13 16-16"/>
  <path d="m63 48c-8.6 25-16 51-25 75-7.2-2.9-17-3.8-21-8.4-0.58-4.4 11-66 23-72 7.2-3.2 16 3 23 4.2"/>
  <path d="m126 97c9.8 1.8 21 2 31 4.2 5.6-4.7-1.4-21 7.7-22 12 2.6-5.5 25 9.2 25-0.57 6.5-5.6 9-9.2 13-3.2 35-9.1 73-14 109-1.4 11 0.22 25-7.7 34-4.7-42 11-91 12-139-11-5.6-30-3.8-44-7-5.6-6-8.4-14-16-20-5.8 12-7.7 27-14 39 12 16 27 27 38 43v81c-39 4-17-43-25-70-5.5-18-51-32-52-61-0.9-14 8.4-29 12-40 4.7-14 9.5-53 40-36 14 8.2 18 35 31 48"/>
  <path d="m39 136c7.2 9.8 16 18 23 29-10 38-32 64-51 94-31-22 5.5-43 16-69 7.2-18 5.7-35 12-53"/>
</svg>
