<svg version="1.1" viewBox="0 0 215 261" xmlns="http://www.w3.org/2000/svg">
  <defs>
    <clipPath id="j">
      <path d="m-728-505h1664v1300h-1664z" stroke-width="1.3"/>
    </clipPath>
    <clipPath id="i">
      <path d="m-728-505h1664v1300h-1664z" stroke-width="1.3"/>
    </clipPath>
    <clipPath id="h">
      <path d="m-728-505h1664v1300h-1664z" stroke-width="1.3"/>
    </clipPath>
    <clipPath id="g">
      <path d="m-728-505h1664v1300h-1664z" stroke-width="1.3"/>
    </clipPath>
    <clipPath id="f">
      <path d="m-728-505h1664v1300h-1664z" stroke-width="1.3"/>
    </clipPath>
    <clipPath id="e">
      <path d="m-728-505h1664v1300h-1664z" stroke-width="1.3"/>
    </clipPath>
    <clipPath id="d">
      <path d="m-728-505h1664v1300h-1664z" stroke-width="1.3"/>
    </clipPath>
    <clipPath id="c">
      <path d="m-728-505h1664v1300h-1664z" stroke-width="1.3"/>
    </clipPath>
    <clipPath id="b">
      <path d="m-728-505h1664v1300h-1664z" stroke-width="1.3"/>
    </clipPath>
    <clipPath id="a">
      <path d="m162 188c-2.9 9.6-20 6.4-32 6.4s-29 2.5-35-3.9c-0.55-2.7 0.88-3.4 1.3-5.1 1-0.25 1.3-1.3 2.6-1.3h34c11 0 23-2.7 30 3.9" fill="#231f20" fill-rule="evenodd" stroke-width="1.3"/>
    </clipPath>
  </defs>
  <path d="m-728-505h1664v1300h-1664z" clip-path="url(#a)" stroke-width="1.3"/>
  <path d="m90 22c-0.52 6.8 4.8 5.7 5.1 14-6.2 4.4-20 2-21 12 21-0.86 47 1.7 65-1.3-2.6-8.1-16-5.2-21-12-0.13-6.1 5.3-6.6 5.1-13-3-18-34-16-35 0m44 7.7c8.6 5.5 18 9.4 18 25-12 4.4-29 2.6-46 2.6-16 0-32 2-44-2.6-0.57-14 7.4-20 18-23-13-40 64-40 52-1.3" clip-path="url(#i)" fill="#231f20" fill-rule="evenodd" stroke-width="1.3"/>
  <path d="m100 24c2.5 3.6 14 4.4 14-2.6-0.64-8.8-17-8.3-14 2.6m25-2.6c0.26 6.2-5.2 6.8-5.1 13 4.3 6.4 18 3.5 21 12-20 3-44 0.43-65 1.3 1.1-9.6 14-7.2 21-12-0.29-8.3-5.6-7.4-5.1-14 1.2-16 31-18 35 0" clip-path="url(#c)" fill="#fff" fill-rule="evenodd" stroke-width="1.3"/>
  <path d="m113 22c0.74 7-12 6.2-14 2.6-2.2-11 13-11 14-2.6" clip-path="url(#d)" fill="#231f20" fill-rule="evenodd" stroke-width="1.3"/>
  <path d="m3.9 29h64c-9.6 17-31 7.3-55 10-3 68-0.43 140-1.3 211h191v-211c-14-1.7-55 5.8-55-10 21 0.83 46-1.7 65 1.3 2.1 73 2.1 155 0 229-68 2.1-144 2.1-212 0-3-73-0.43-151-1.3-226 0.72-1.8 2-3.1 3.9-3.9" clip-path="url(#j)" fill="#231f20" fill-rule="evenodd" stroke-width="1.3"/>
  <path d="m81 86c-5.3 13-18 20-27 29-9.4-3.5-14-12-18-21 7.3-7.3 13 2.9 17 7.7 11-2.9 16-23 29-16" clip-path="url(#e)" fill="#231f20" fill-rule="evenodd" stroke-width="1.3"/>
  <path d="m173 98c-3.4 10-22 6.4-36 6.4s-31 2.6-39-3.9c-0.61-4 1.6-5.2 3.9-6.4h38c13 0 26-2.9 34 3.9" clip-path="url(#g)" fill="#231f20" fill-rule="evenodd" stroke-width="1.3"/>
  <path d="m81 132c-5.3 13-18 20-27 29-9.4-3.5-14-12-18-21 7.3-7.3 13 2.9 17 7.7 11-2.6 14-23 29-16" clip-path="url(#h)" fill="#231f20" fill-rule="evenodd" stroke-width="1.3"/>
  <path d="m173 144c-3.8 10-22 6.4-36 6.4s-31 2.5-39-3.9c-0.61-4 1.6-5.2 3.9-6.4h38c13 0 26-2.9 34 3.9" clip-path="url(#b)" fill="#231f20" fill-rule="evenodd" stroke-width="1.3"/>
  <path d="m81 176c-6.5 13-17 21-30 29-6-6-12-12-16-21 7.3-7.3 13 2.9 17 7.7 11-2.6 14-23 29-16" clip-path="url(#f)" fill="#231f20" fill-rule="evenodd" stroke-width="1.3"/>
</svg>
