<svg version="1.1" viewBox="0 0 220 267" xmlns="http://www.w3.org/2000/svg">
  <defs>
    <clipPath id="a">
      <path d="m0 1e3h1280v-1e3h-1280z"/>
    </clipPath>
  </defs>
  <g transform="matrix(1.3 0 0 -1.3 -746 815)">
    <g>
      <g clip-path="url(#a)">
        <g transform="translate(629 595)">
          <path d="m0 0c-0.4-5.2 3.7-4.4 3.9-11-4.8-3.4-15-1.5-16-8.9 16 0.66 36-1.3 50 0.99-2 6.2-12 4-16 8.9-0.1 4.7 4.1 5.1 3.9 9.9-2.3 14-26 12-27 0m34-5.9c6.6-4.2 14-7.2 14-19-8.9-3.4-22-2-35-2-12 0-25-1.5-34 2-0.44 11 5.7 15 14 18-9.8 31 49 31 40 0.99" fill="#231f20" fill-rule="evenodd"/>
        </g>
        <g transform="translate(637 593)">
          <path d="m0 0c1.9-2.8 11-3.4 11 2-0.49 6.8-13 6.4-11-2m19 2c0.2-4.8-4-5.2-3.9-9.9 3.3-4.9 14-2.7 16-8.9-15-2.3-34-0.33-50-0.98 0.84 7.4 11 5.5 16 8.9-0.22 6.4-4.3 5.7-3.9 11 0.93 12 24 14 27 0" fill="#fff" fill-rule="evenodd"/>
        </g>
        <g transform="translate(647 595)">
          <path d="m0 0c0.57-5.4-8.9-4.8-11-2-1.7 8.4 10 8.7 11 2" fill="#231f20" fill-rule="evenodd"/>
        </g>
        <g transform="translate(563 589)">
          <path d="m0 0h49c-7.4-13-24-5.6-42-7.9-2.3-52-0.33-108-0.98-162h147v162c-11 1.3-42-4.5-42 7.9 16-0.64 35 1.3 50-0.98 1.6-56 1.6-119 0-176-52-1.6-111-1.6-163 0-2.3 56-0.33 116-0.99 174 0.55 1.4 1.5 2.4 3 3" fill="#231f20" fill-rule="evenodd"/>
        </g>
        <g transform="translate(622 545)">
          <path d="m0 0c-4.1-10-14-15-21-22-7.2 2.7-11 9.2-14 16 5.6 5.6 10-2.2 13-5.9 8.2 2.2 12 18 22 12" fill="#231f20" fill-rule="evenodd"/>
        </g>
        <g transform="translate(693 536)">
          <path d="m0 0c-2.6-7.9-17-4.9-28-4.9-11 0-24-2-30 3-0.47 3.1 1.2 4 3 4.9h29c9.7 0 20 2.2 26-3" fill="#231f20" fill-rule="evenodd"/>
        </g>
        <g transform="translate(622 510)">
          <path d="m0 0c-4.1-10-14-15-21-22-7.2 2.7-11 9.2-14 16 5.6 5.6 10-2.2 13-5.9 8.3 2 11 18 22 12" fill="#231f20" fill-rule="evenodd"/>
        </g>
        <g transform="translate(693 501)">
          <path d="m0 0c-2.9-7.8-17-4.9-28-4.9-11 0-24-1.9-30 3-0.47 3.1 1.2 4 3 4.9h29c9.7 0 20 2.2 26-3" fill="#231f20" fill-rule="evenodd"/>
        </g>
        <g transform="translate(622 476)">
          <path d="m0 0c-5-9.8-13-16-23-22-4.6 4.6-9.4 9.1-12 16 5.6 5.6 10-2.2 13-5.9 8.3 2 11 18 22 12" fill="#231f20" fill-rule="evenodd"/>
        </g>
        <g transform="translate(685 467)">
          <path d="m0 0c-2.2-7.4-15-4.9-25-4.9-10 0-22-1.9-27 3-0.42 2.1 0.68 2.6 0.99 3.9 0.8 0.19 0.98 0.99 2 0.99h26c8.7 0 18 2.1 23-3" fill="#231f20" fill-rule="evenodd"/>
        </g>
      </g>
    </g>
  </g>
</svg>
