<svg version="1.1" viewBox="0 0 261 247" xmlns="http://www.w3.org/2000/svg">
  <defs>
    <clipPath id="a">
      <path d="m0 1e3h1280v-1e3h-1280z"/>
    </clipPath>
  </defs>
  <g transform="matrix(1.3 0 0 -1.3 -622 864)">
    <g clip-path="url(#a)">
      <g transform="translate(678,576)">
        <path d="m0 0c2.3-30 2.3-68 0-98-11-2.9-27-0.52-40-1.3v100c-9.9 0.58 4.7 12 40-1.3"/>
      </g>
      <g transform="translate(621,582)">
        <path d="m0 0c2.4 2.2-1.2 4.4 0 9.3h-24v-9.3zm26 0v-105h-75v105h15c3.4 3.4-0.63 14 2.8 17 13-0.78 29 1.7 39-1.3 2.7-3.2 0.87-11 1.4-16z"/>
      </g>
      <g transform="translate(560,582)">
        <path d="m0 0c5.4 14 16 26 15 42-2 58-94 35-88-14 3.4-28 30-53 44-76 10 12 23 27 16 46 2.4 2.3 8.5 1.3 13 1.7m29 1.2c1.2-39 2.4-67 3.7-106-15 2.3-25-5.1-40 0-0.2 21-5.7 41-5.9 62-5-0.59-11-12-16-16-21 34-75 74-40 117 31 39 95 30 89-25-1.2-12-3.8-22-9.1-33 2.6-3.2 14 1.8 19 1.1"/>
        <path d="m0 0c5.4 14 16 26 15 42-2 58-94 35-88-14 3.4-28 30-53 44-76 10 12 23 27 16 46 2.4 2.3 8.5 1.3 13 1.7zm29 1.2c1.2-39 2.4-67 3.7-106-15 2.3-25-5.1-40 0-0.2 21-5.7 41-5.9 62-5-0.59-11-12-16-16-21 34-75 74-40 117 31 39 95 30 89-25-1.2-12-3.8-22-9.1-33 2.6-3.2 14 1.8 19 1.1z" fill="none" stroke="#000" stroke-miterlimit="10"/>
      </g>
      <g transform="translate(533,603)">
        <path d="m0 0c8.3 0.96 16 11 10 23-26 21-38-26-10-23m-7.5 34c16 3.4 29-5.8 28-23-2.5-29-53-24-44 9.3 0.81 3.3 5.8 11 17 13"/>
      </g>
    </g>
  </g>
</svg>
