<svg version="1.1" viewBox="0 0 201 204" xmlns="http://www.w3.org/2000/svg">
  <defs>
    <clipPath id="a">
      <path d="m0 1e3h1280v-1e3h-1280z"/>
    </clipPath>
  </defs>
  <g transform="matrix(1.3 0 0 -1.3 -753 789)">
    <g>
      <g clip-path="url(#a)">
        <g transform="translate(650 531)">
          <path d="m0 0c-4.2-23 9.5-72-9.4-74-22-2.3-8.4 50-12 72-10-0.34-16-16-27-21-3.1-1.6-10 4.5-11 9.9-1.4 11 39 45 46 53 11 0.43 17-12 28-24 10-11 23-19 23-27-0.21-5.5-5.6-12-9.5-11-9.3 2.6-16 19-28 23" fill-rule="evenodd"/>
        </g>
        <g transform="translate(626 590)">
          <path d="m0 0c126-8.8 102-126 24-150-121 14-94 123-24 150z" fill="none" stroke="#000" stroke-miterlimit="10" stroke-width="3"/>
        </g>
      </g>
    </g>
  </g>
</svg>
