<svg version="1.1" viewBox="0 0 253 253" xmlns="http://www.w3.org/2000/svg">
  <defs>
    <clipPath id="a">
      <path d="m0 1e3h1280v-1e3h-1280z"/>
    </clipPath>
  </defs>
  <g transform="matrix(1.3 0 0 -1.3 -730 806)">
    <g>
      <g clip-path="url(#a)">
        <g transform="translate(554 565)">
          <path d="m0 0c0.74-47-1.5-97 1.1-142h172c2.6 46 0.38 97 1.1 145h-172c-1.4-0.46-2.3-1.4-2.3-3.4m1.1 30c-2.4-4.4-0.57-13-1.1-19h174v20c-54 2.6-114 0.38-170 1.1-1.3-0.55-2.6-1.2-3.4-2.3m-2.3 9h138c15 0 30 1.8 43-2.3 4-14 2.3-30 2.3-46v-95c0-15 2.5-31-3.4-44-14-4-29-2.3-45-2.3h-95c-15 0-30-1.8-44 2.3-4 14-2.3 30-2.3 45 0 45-0.92 95 1.1 138 2.3 0.33 2.2 3 4.5 3.4" fill="#231f20" fill-rule="evenodd"/>
        </g>
        <g transform="translate(598 583)">
          <path d="m0 0h7.9v6.8c-1.4 1.6-4.9 1.1-7.9 1.1zm-15 0h7.9v7.9h-7.9zm-15 0h7.9v7.9h-7.9zm-10 15c56-0.74 116 1.5 170-1.1v-20h-174c0.56 6.2-1.2 15 1.1 19 0.82 1.1 2 1.7 3.4 2.3" fill="#fff" fill-rule="evenodd"/>
        </g>
        <path d="m569 591h7.9v-7.9h-7.9z" fill="#231f20" fill-rule="evenodd"/>
        <path d="m584 591h7.9v-7.9h-7.9z" fill="#231f20" fill-rule="evenodd"/>
        <g transform="translate(598 591)">
          <path d="m0 0c3-0.012 6.4 0.43 7.9-1.1v-6.8h-7.9z" fill="#231f20" fill-rule="evenodd"/>
        </g>
        <g transform="translate(569 445)">
          <path d="m0 0c13 0.25 29-0.33 41 0 3.6 0.1 9.9-2 11 2.3 0.46 9.1-14 5.6-23 5.6h-29zm0 15c13 0.25 29-0.33 41 0 3.6 0.1 9.9-2 11 2.2 0.46 9.1-14 5.6-23 5.6h-29zm0 15c7-2 17-1.1 27-1.1 9.2 0 21-2.6 25 3.4v3.4c-5.3 4-15 2.2-24 2.2h-28zm81 17c0.7-14-1.4-31 1.1-43 14 0.71 31-1.4 44 1.1v42c-12 1.9-33 1.9-45 0m-53 5.6h-28v-9h27c9.4 0 20-2.7 25 3.4v3.4c-5.3 4-15 2.2-24 2.2m81 20h23v7.9h-23zm-44 0h37v7.9h-37zm73 23c-23 2.2-53-1.7-73 0v-7.9c19 0.078 44-0.1 63 0 5.9 0.033 18-3 17 4.5 1.4 5.1-4.7 3.2-6.8 3.4m-52 7.9c13-1.8 32-1.4 45-1.1 4.5 0.091 11-2 14 2.2v4.5c-17 2.6-39 0.38-59 1.1zm-21-1.1c5.1 0.49 12-1.1 16 1.1v6.8h-16zm-65 6.8v-42c14-1.9 36-1.9 51 0 1.9 11 1.9 30 0 42-14 1.9-36 1.9-51 0m-12 16h172c-0.75-48 1.5-99-1.1-145h-172c-2.6 45-0.39 95-1.1 142-0.048 1.9 0.84 2.9 2.3 3.4" fill="#fff" fill-rule="evenodd"/>
        </g>
        <path d="m577 518h36v28h-36zm43 35c1.9-11 1.9-30 0-42-14-1.9-36-1.9-51 0v42c14 1.9 36 1.9 51 0" fill="#231f20" fill-rule="evenodd"/>
        <g transform="translate(634 554)">
          <path d="m0 0h16v-6.8c-3.4-2.3-11-0.64-16-1.1z" fill="#231f20" fill-rule="evenodd"/>
        </g>
        <g transform="translate(656 554)">
          <path d="m0 0c19-0.75 41 1.5 59-1.1v-4.5c-2.2-4.2-9-2.2-14-2.3-13-0.28-32-0.69-45 1.1z" fill="#231f20" fill-rule="evenodd"/>
        </g>
        <path d="m577 546h36v-28h-36z" fill="#fff" fill-rule="evenodd"/>
        <g transform="translate(714 536)">
          <path d="m0 0c1.4-7.5-11-4.5-17-4.5-19-0.1-44 0.078-63 0v7.9c20-1.7 51 2.2 73 0 2.1-0.2 8.1 1.7 6.8-3.4" fill="#231f20" fill-rule="evenodd"/>
        </g>
        <path d="m634 524h37v-7.9h-37z" fill="#231f20" fill-rule="evenodd"/>
        <path d="m678 524h23v-7.9h-23z" fill="#231f20" fill-rule="evenodd"/>
        <g transform="translate(621 494)">
          <path d="m0 0v-3.4c-4.4-6.1-15-3.4-25-3.4h-27v9h28c8.4 0 18 1.8 24-2.2" fill="#231f20" fill-rule="evenodd"/>
        </g>
        <path d="m657 456h30v28h-30zm38 35v-42c-12-2.6-30-0.42-44-1.1-2.6 12-0.42 29-1.1 43 12 1.9 33 1.9 45 0" fill="#231f20" fill-rule="evenodd"/>
        <path d="m657 484h30v-28h-30z" fill="#fff" fill-rule="evenodd"/>
        <g transform="translate(569 482)">
          <path d="m0 0h28c8.4 0 18 1.8 24-2.2v-3.4c-4-6-16-3.4-25-3.4-9.8 0-20-0.85-27 1.1z" fill="#231f20" fill-rule="evenodd"/>
        </g>
        <g transform="translate(569 467)">
          <path d="m0 0h29c8.8 0 23 3.4 23-5.6-1.4-4.2-7.6-2.1-11-2.2-12-0.33-28 0.25-41 0z" fill="#231f20" fill-rule="evenodd"/>
        </g>
        <g transform="translate(569 452)">
          <path d="m0 0h29c8.8 0 23 3.4 23-5.6-1.4-4.2-7.6-2.2-11-2.3-12-0.33-28 0.25-41 0z" fill="#231f20" fill-rule="evenodd"/>
        </g>
      </g>
    </g>
  </g>
</svg>
