<svg version="1.1" viewBox="0 0 261 228" xmlns="http://www.w3.org/2000/svg">
  <path d="m89 131c-12-7.9-20-21-32-29-10 22-27 36-35 61h157c-13-36-30-69-49-99-13 22-23 49-40 68m105 44c-26 2-60-3.9-82 2.9 23 10 43 25 68 35 23-39 47-81 70-120-20-8.3-32-23-52-32-1.8 36 3.8 82-2.9 113m-178-29c13-20 22-44 40-58 16 2 21 29 35 23 12-23 22-49 40-68 22 27 32 68 52 96v-129h-172c2 44-3.9 95 2.9 134m181-146v44c20 17 47 27 64 47-21 51-49 94-79 136-36-14-66-35-99-52h-79c-6.8-52-1-116-2.9-172 60-6.8 131-1 195-2.9" fill="#231f20" fill-rule="evenodd" stroke-width="1.3"/>
  <path d="m54 64c18 2.2 26-5.6 23-23-16-21-44 7.4-23 23m2.9-40c20-4.6 30 6.4 32 14 13 43-55 56-56 12-0.17-16 6.9-22 23-26" fill="#231f20" fill-rule="evenodd" stroke-width="1.3"/>
</svg>
