<svg version="1.1" viewBox="0 0 267 234" xmlns="http://www.w3.org/2000/svg">
  <defs>
    <clipPath id="a">
      <path d="m0 1e3h1280v-1e3h-1280z"/>
    </clipPath>
  </defs>
  <g transform="matrix(1.3 0 0 -1.3 -728 793)">
    <g>
      <g clip-path="url(#a)">
        <g transform="translate(614 493)">
          <path d="m0 0c-9.6 6.1-15 16-25 22-8-17-21-28-27-47h121c-10 28-23 53-38 76-10-17-18-38-31-52m81-34c-20-1.5-46 3-63-2.2 18-8 33-19 52-27 18 30 36 62 54 92-15 6.4-25 18-40 25-1.4-28 2.9-63-2.2-87m-137 22c10 15 17 34 31 45 12-1.5 16-22 27-18 9.4 18 17 38 31 52 17-21 25-52 40-74v99h-132c1.5-34-3-73 2.2-103m139 112v-34c15-13 36-21 49-36-16-39-38-72-61-105-28 11-51 27-76 40h-61c-5.2 40-0.78 89-2.2 132 46 5.2 101 0.78 150 2.2" fill="#231f20" fill-rule="evenodd"/>
        </g>
        <g transform="translate(571 556)">
          <path d="m0 0c0.35-34 52-24 43 9-1.9 6.3-9.4 15-25 11-13-2.9-18-8.2-18-20m-16 29h132v-99c-16 22-23 53-40 74-14-13-22-33-31-52-11-3.9-14 16-27 18-14-11-21-29-31-45-5.2 30-0.75 70-2.2 103" fill="#fff" fill-rule="evenodd"/>
        </g>
        <g transform="translate(587 545)">
          <path d="m0 0c14-1.7 20 4.3 18 18-12 16-34-5.7-18-18m2.2 31c15 3.5 23-4.9 25-11 9.7-33-42-43-43-9-0.13 12 5.3 17 18 20" fill="#231f20" fill-rule="evenodd"/>
        </g>
        <g transform="translate(605 563)">
          <path d="m0 0c1.7-14-4.3-20-18-18-16 12 5.6 34 18 18" fill="#fff" fill-rule="evenodd"/>
        </g>
        <g transform="translate(697 547)">
          <path d="m0 0c15-6.3 25-18 40-25-18-30-36-62-54-92-19 7.4-33 19-52 27 16 5.2 43 0.77 63 2.2 5.1 25 0.83 59 2.2 87" fill="#fff" fill-rule="evenodd"/>
        </g>
        <g transform="translate(645 545)">
          <path d="m0 0c15-23 28-48 38-76h-121c5.6 19 19 30 27 47 9.6-6.1 15-16 25-22 14 14 21 34 31 52" fill="#fff" fill-rule="evenodd"/>
        </g>
      </g>
    </g>
  </g>
</svg>
