<svg version="1.1" viewBox="0 0 293 268" xmlns="http://www.w3.org/2000/svg">
  <defs>
    <clipPath id="a">
      <path d="m0 1e3h1280v-1e3h-1280z"/>
    </clipPath>
  </defs>
  <g transform="matrix(1.3 0 0 -1.3 -265 817)">
    <g clip-path="url(#a)">
      <g transform="translate(224,610)">
        <path d="m0 0c2.3-1.4 6.5 0.7 8.7-0.73 0.14-2.4 0.28-6.7-0.46-9-2.4-1.2-6 0.84-8.5-0.48-0.041-2.8-0.36-7.8 0.46-10 2.4-1.4 6.9 1.3 8.7-0.97-0.32-2.4-0.036-5.5-0.46-7.8-2.5-2.2-7.4 0.085-9-2.7-1.2-2.1 0.38-4.9 0.46-7.5 2.7-1.1 7.1 1.2 8.7-0.97 3e-3 -2.2 0.49-7-0.69-8.7-2.4-0.89-6.1 0.86-8.3-0.48-0.17-2.7-0.083-7.2 0.23-10 2.3-1.4 6.5 0.7 8.7-0.73 0.29-2.2 0.032-5.6-0.23-8-1.9-2.1-7.5-0.35-9.2-2.7-0.42-2.7 0.31-5.2 0.69-7.5 2.2-1.4 6.8 0.93 8.7-0.97 0.1-2.3 0.29-6.6-0.46-8.7-2.4-1.2-6 0.84-8.5-0.48-0.041-2.8-0.36-7.8 0.46-10 2.3-1.4 6.5 1.2 8.5-0.73 0.28-2.1 0.014-5.6-0.23-8-2.5-2.2-7.4 0.084-9-2.7-1.2-2.1 0.38-4.9 0.46-7.5 2.7-1.1 7.1 1.2 8.7-0.97 3e-3 -2.2 0.49-7-0.69-8.7-2.4-0.89-6.1 0.86-8.3-0.48-0.17-2.7-0.083-7.2 0.23-10 2.3-1.4 6.5 0.7 8.7-0.73-0.4-2.6 1-6.7-0.46-8.5-1.8-2.2-6.5 0.63-8.7-1.5-0.15-2.9-0.19-4.9 0-7.8 1.9-1.8 7.6 0.42 9.2-1.7-0.094-2.1 0.42-6.4-0.46-8.5-2.4-1.2-6 0.84-8.5-0.48-0.32-3 0.21-7 0-11h196v187h-195c-0.41-2.4-0.35-6.5 0-9m205 17c-1.2-68 2-139-1.6-205h-211c-2.7 4.7-3.6 12-3 20-1.7 2.1-6.1-0.078-8.7 0.97-0.37 2.5-1.1 4.9-0.69 7.8 1.7 2.4 7.1 0.73 9.2 2.7 0.3 2.3 0.52 6 0 7.8-2.2 1.8-7.1-0.67-9 1.5 0.52 2.8-1.1 5.8 0.23 7.8 1.5 2.2 6 0.28 8.7 0.97 0.4 2.9 0.36 7.5 0 10-2.1 1.6-6-0.71-8.5 0.73-0.17 2.6-1.6 5.5-0.46 7.5 1.6 2.9 6.3 0.69 9 2.7 0.36 2.2 0.31 5.6 0.23 7.5-1.6 2.1-7.3-0.091-9.2 1.7 0.5 2.8-0.96 5.6 0 7.5 1.3 2.7 5.4 0.76 9 1.2 0.39 2.9 0.37 7.5 0 10-1.9 1.8-5.9-0.3-8.5 0.73-0.37 2.5-1.1 4.9-0.69 7.8 1.7 2.4 7.1 0.73 9.2 2.7 0.3 2.3 0.52 6 0 7.8-2.2 1.8-7.1-0.68-9 1.5 0.52 2.8-1.1 5.8 0.23 7.8 1.5 2.2 6 0.28 8.7 0.97 0.4 2.9 0.36 7.5 0 10-2.1 1.6-6-0.71-8.5 0.73-0.17 2.6-1.6 5.5-0.46 7.5 1.6 2.9 6.3 0.69 9 2.7 0.36 2.2 0.31 5.6 0.23 7.5-1.6 2.1-7.3-0.09-9.2 1.7 0.5 2.8-0.96 5.6 0 7.5 1.3 2.7 5.4 0.76 9 1.2 0.54 2.8 0.077 6.7 0.23 9.9-1.8 2.5-7.1-0.24-9.2 1.9 0.52 2.8-1.1 5.8 0.23 7.8 1.5 2.2 6 0.27 8.7 0.97-0.098 6.2 0.47 13 1.8 19 71-1.2 145 2.2 214-1.7" fill="#231f20" fill-rule="evenodd"/>
      </g>
      <g transform="translate(350,453)">
        <path d="m0 0c3.6-0.12 8.4-1 13-0.72 4.1 0.28 7.9 2.5 7.9 5.5 0.047 4.9-6.5 5.8-12 5.5-27-1.7-59-0.36-87-0.72v-7.9c23-3.6 52-0.78 78-1.7m-1.2 24c4.7-0.083 9.3-1.5 14-0.96 3.4 0.36 7.7 2.5 7.7 5.8-0.05 4.7-6.8 5.5-11 5.3-27-1.6-59-0.027-88-0.72v-7.9c23-3.2 52-1 77-1.4m-20 92c-5.8-7.6-12-15-18-23-5.6-7.4-13-17-12-29 0.025-6.2 2.2-11 4.8-15 7 1.3 17-0.27 23 2.6 7.4 3.7 14 14 18 21 5.4 8 10 16 16 24 12 15 24 29 33 45-5.4 5.9-13 11-20 16-2.3 1.6-5.1 4.9-7.4 4.8-13-13-24-30-37-46m-109 49h204v-186h-204c0.21 3.6-0.33 7.6 0 11 2.6 1.3 6.4-0.74 8.9 0.48 0.91 2 0.38 6.3 0.48 8.4-1.7 2.1-7.6-0.093-9.6 1.7-0.2 2.8-0.16 4.8 0 7.7 2.4 2.1 7.2-0.76 9.1 1.4 1.6 1.8 0.062 5.8 0.48 8.4-2.4 1.4-6.8-0.65-9.1 0.72-0.33 3-0.41 7.4-0.24 10 2.2 1.3 6.1-0.4 8.6 0.48 1.2 1.7 0.72 6.5 0.72 8.6-1.7 2.1-6.3-0.087-9.1 0.96-0.087 2.6-1.8 5.4-0.48 7.4 1.7 2.7 6.7 0.48 9.4 2.6 0.25 2.3 0.54 5.8 0.24 7.9-2.1 1.9-6.5-0.67-8.9 0.72-0.86 2.6-0.52 7.6-0.48 10 2.6 1.3 6.4-0.74 8.9 0.48 0.79 2.1 0.59 6.4 0.48 8.6-2 1.9-6.8-0.45-9.1 0.96-0.4 2.3-1.2 4.7-0.72 7.4 1.8 2.3 7.6 0.54 9.6 2.6 0.27 2.3 0.54 5.8 0.24 7.9-2.4 1.4-6.8-0.65-9.1 0.72-0.33 3-0.41 7.4-0.24 10 2.2 1.3 6.1-0.4 8.6 0.48 1.2 1.7 0.72 6.5 0.72 8.6-1.7 2.1-6.3-0.087-9.1 0.96-0.087 2.6-1.8 5.4-0.48 7.4 1.7 2.7 6.7 0.48 9.4 2.6 0.44 2.3 0.15 5.3 0.48 7.7-1.9 2.3-6.6-0.46-9.1 0.96-0.86 2.6-0.52 7.6-0.48 10 2.6 1.3 6.4-0.74 8.9 0.48 0.77 2.2 0.62 6.5 0.48 8.9-2.4 1.4-6.8-0.65-9.1 0.72-0.37 2.4-0.42 6.5 0 8.9" fill="#fff" fill-rule="evenodd"/>
      </g>
      <g transform="translate(306,510)">
        <path d="m0 0c3.1-1.9 8.1-0.54 11 0.72-4.2 2.4-6.6 6.5-12 7.9 0.44-2.7 1.8-5.5 0.96-8.6m53 83c-19-21-35-46-53-68 5.7-4 11-8.5 17-12 17 23 35 46 52 69-5.5 3.7-10 8-16 12m11 16c-2.8-4-6.1-7.5-8.6-12 6.4-3.2 9.2-9.9 17-11 4.4 2.7-0.38 4.6-3.4 6.7-2.4 1.7-4.5 3-5 4.8 0.9 1.1 1.6 2.4 2.6 3.4 4-2.5 7.2-5.8 11-8.2 0.46 1.4 1.7 2 2.2 3.4-4.5 5.3-11 8.6-16 13m-2.9 6.7c2.4 0.077 5.2-3.2 7.4-4.8 6.9-5.1 14-9.7 20-16-9-16-21-30-33-45-5.4-7.1-10-16-16-24-4.8-7.1-11-17-18-21-5.8-2.9-16-1.3-23-2.6-2.6 4.8-4.8 9.1-4.8 15-0.045 11 6.9 21 12 29 6 7.9 12 15 18 23 12 16 24 33 37 46" fill="#231f20" fill-rule="evenodd"/>
      </g>
      <g transform="translate(385,595)">
        <path d="m0 0c-0.46-1.4-1.7-2-2.2-3.4-4.1 2.4-7.3 5.6-11 8.2-1-0.98-1.7-2.3-2.6-3.4 0.58-1.8 2.6-3.1 5-4.8 3-2.1 7.7-4 3.4-6.7-8.1 1.4-11 8.1-17 11 2.6 4.2 5.8 7.8 8.6 12 5.4-4.4 12-7.7 16-13" fill="#fff" fill-rule="evenodd"/>
      </g>
      <g transform="translate(374,581)">
        <path d="m0 0c-17-23-35-46-52-69-5.8 4-11 8.5-17 12 18 23 34 47 53 68 5.4-3.8 10-8 16-12" fill="#fff" fill-rule="evenodd"/>
      </g>
      <g transform="translate(305,518)">
        <path d="m0 0c5.2-1.4 7.6-5.6 12-7.9-2.7-1.3-7.7-2.6-11-0.72 0.82 3.2-0.52 6-0.96 8.6" fill="#fff" fill-rule="evenodd"/>
      </g>
      <g transform="translate(272,478)">
        <path d="m0 0v7.9c29 0.69 61-0.85 88 0.72 3.8 0.22 11-0.56 11-5.3 0.034-3.3-4.3-5.4-7.7-5.8-4.8-0.5-9.5 0.88-14 0.96-24 0.43-54-1.8-77 1.4" fill="#231f20" fill-rule="evenodd"/>
      </g>
      <g transform="translate(272,455)">
        <path d="m0 0v7.9c28 0.36 60-0.98 87 0.72 5.1 0.32 12-0.58 12-5.5-0.029-3.1-3.8-5.2-7.9-5.5-4.3-0.3-9.1 0.6-13 0.72-26 0.9-54-1.9-78 1.7" fill="#231f20" fill-rule="evenodd"/>
      </g>
    </g>
  </g>
</svg>
