<svg version="1.1" viewBox="0 0 260 222" xmlns="http://www.w3.org/2000/svg">
  <defs>
    <clipPath id="a">
      <path d="m-655-525h1664v1300h-1664z" stroke-width="1.3"/>
    </clipPath>
    <clipPath id="b">
      <path d="m100 96c6.9 9.1 6.9 30 4.7 42-0.75-0.68-2.6-0.47-2.9-1.6-2.5 1.1-2.2 4.3-3.8 6.2-2.9-3.1-4 0.99-5.7 3.1-4.8-1.7-12-1.4-13-6.2-3 1.2-0.74 6.6-5.7 6.2-5.6-12-3.6-32-3.8-47 8.1-2.6 20-4 30-2.3" fill-rule="evenodd" stroke-width="1.3"/>
    </clipPath>
  </defs>
  <path d="m-655-525h1664v1300h-1664z" clip-path="url(#b)" stroke-width="1.3"/>
  <path d="m152 169c-1.2 5.5 7.9 6.8 6.8-0.7-1.8-2.6-6.1-2.2-6.8 0.7m-70-107c-11 8.6-23 18-35 27-2.3 1.8-11 7.2-12 9.5-0.94 3 0 9.4 0 14v100h109c0-12-4-27-4-40s3.1-26 4-38c1.3-18 25-26 26-26 14 4.2 25 4.2 27 17 1.8 6.6 5.1 14 5.1 23 0 21-2.9 44-2.9 64h27v-116c-31-25-64-49-96-74-17 12-32 25-49 38m-29-51h38c1.6 2.2 0 5.5 0 8.1 0.44 1.6-2.3-0.032-2.5 1.1v11c13-9.5 27-21 42-31 43 34 95 61 130 100-3.5 5.6-7.8 10-12 16-4.8-3.2-8.7-7.3-14-10-0.23 40 0.46 79-0.35 117h-208c-0.81-38-0.12-78-0.35-117-2.2 0.47-4.4 2.9-6.8 4.6-2.3 1.8-4.7 3.5-6.8 5.3-4.3-4.8-8.3-10-12-16 13-23 38-29 56-43v-36c0.36-1.7-2.6 0.064-2.9-1.1 0-2.9-5.3-5.7 0-8.4" clip-path="url(#a)" fill-rule="evenodd" stroke-width="1.3"/>
</svg>
