<svg version="1.1" viewBox="0 0 267 229" xmlns="http://www.w3.org/2000/svg">
  <defs>
    <clipPath id="a">
      <path d="m0 1e3h1280v-1e3h-1280z"/>
    </clipPath>
  </defs>
  <g transform="matrix(1.3 0 0 -1.3 -672 795)">
    <g>
      <g clip-path="url(#a)">
        <g transform="translate(621 466)">
          <path d="m0 0c-0.92-4.2 6.1-5.2 5.2 0.54-1.4 2-4.7 1.7-5.2-0.54m-54 82c-8.5-6.6-18-14-27-21-1.8-1.4-8.4-5.5-9-7.3-0.72-2.3 0-7.2 0-11v-77h84c0 9.3-3.1 21-3.1 31 0 10 2.4 20 3.1 29 1 14 19 20 20 20 11-3.2 19-3.2 21-13 1.4-5.1 3.9-11 3.9-18 0-16-2.2-34-2.2-49h21v89c-24 19-49 38-74 57-13-9.5-25-19-38-29m-22 39h29c1.2-1.7 0-4.2 0-6.2 0.34-1.2-1.8 0.025-1.9-0.82v-8.7c10 7.3 21 16 32 24 33-26 73-47 100-77-2.7-4.3-6-7.9-9-12-3.7 2.5-6.7 5.6-11 7.9-0.18-31 0.35-61-0.27-90h-160c-0.62 29-0.091 60-0.27 90-1.7-0.36-3.4-2.2-5.2-3.5-1.8-1.4-3.6-2.7-5.2-4.1-3.3 3.7-6.4 7.7-9.2 12 10 18 29 22 43 33v28c0.28 1.3-2-0.049-2.2 0.82 0 2.2-4.1 4.4 0 6.5" fill-rule="evenodd"/>
        </g>
        <g transform="translate(626 467)">
          <path d="m0 0c0.89-5.8-6.1-4.7-5.2-0.54 0.49 2.2 3.7 2.5 5.2 0.54" fill="#fff" fill-rule="evenodd"/>
        </g>
        <g transform="translate(581 522)">
          <path d="m0 0c5.3-7 5.3-23 3.6-32-0.58 0.52-2 0.36-2.2 1.2-1.9-0.81-1.7-3.3-2.9-4.8-2.2 2.4-3.1-0.76-4.4-2.4-3.7 1.3-9.3 1.1-10 4.8-2.3-0.92-0.57-5.1-4.4-4.8-4.3 8.9-2.8 25-2.9 36 6.2 2 15 3.1 23 1.8" fill-rule="evenodd"/>
        </g>
      </g>
    </g>
  </g>
</svg>
