<svg version="1.1" viewBox="0 0 245 257" xmlns="http://www.w3.org/2000/svg">
  <path d="m178 208c1.7-3.6-3.9-6.5-4-4 3.2-0.53-0.74 6.1 4 4m-12-7.9c1.6 0.13 0.82-2 0 0m2.6 0c1.8-0.055 3 0.62 4 1.3-1.2-2.3-0.46-6.6-2.7-7.9-1.1 1.6-1.8 3.5-1.3 6.6m14 0c2.9 3.6 6.8-2.9 5.3-7.9 3.9 1.6 5.3 11 2.6 14-3.1-0.36-3.1-3.5-1.3-5.3-3.4-0.23-4.2 2.1-5.3 4 1.3 3.1 9-0.038 7.9 5.3-4.4-0.44-5.8-3.9-12-2.6-2.9 0.36 2 3.5-1.3 5.3 2.7-0.77 3.8-3.2 7.9-2.7-0.75 5.6-5.5 9.2-11 6.6 1.6 4.8 2.2 16 1.3 18h-4c-1.2-2.9 0.82-12 0-18-8.3 3.1-12-9.8-17-13 3.8-0.16 0.69-7.3 5.3-6.6 0.56 2.7-0.91 3.5-1.3 5.3 4.7 2.1 0.81-4.6 4-4 0.39-3.5-5.2-1.1-4-5.3 3.2 0.14 4.2 2.5 6.6 0-13-0.16 11-16 13-4-2-0.69-3.4-2-5.3-2.6-5.5 5.1-0.47 17 5.3 13-2.5-2.5-4.3-5.5-5.3-9.4 4.9 0.35 6.4 4.4 9.4-1.3 0.38 2.7 2.9 11-1.3 11" fill="#231f20" fill-rule="evenodd" stroke-width="1.3"/>
  <path d="m97 12c-0.87 1.8-2.9 2.5-5.3 2.6-1.3-4 3-2.3 5.3-2.6" fill="#fff" fill-rule="evenodd" stroke-width="1.3"/>
  <path d="m110 12c-3 2.9-9.1 3.4-5.3 6.6-0.42 1.8-3.4 1.1-5.3 1.3 0.11-2 0.22-3.8-1.3-4 3.1-2.2 7.2-3.5 12-4" fill="#fff" fill-rule="evenodd" stroke-width="1.3"/>
  <path d="m74 15c3.8 2.2-2.5 5.3-5.3 5.3 0.43-3.1 4.2-3 5.3-5.3" fill="#fff" fill-rule="evenodd" stroke-width="1.3"/>
  <path d="m144 17c0.22 2.9-4.7 0.6-6.6 1.3 1.2-4.4 2.5-0.66 6.6-1.3" fill="#fff" fill-rule="evenodd" stroke-width="1.3"/>
  <path d="m67 17c-0.47 1.7-2.3 2.1-2.6 4-3.4-0.55-0.078-5.2 2.6-4" fill="#fff" fill-rule="evenodd" stroke-width="1.3"/>
  <path d="m187 32c1.1-0.7 2.2-1.4 4-1.3 3 2-1.7 3.2 1.3 4-4 3.1-7.4-5.8-13-5.3-0.74-3 2.6-2 2.6-4 1.1 5.2 6.8 0.73 5.3 6.6" fill="#231f20" fill-rule="evenodd" stroke-width="1.3"/>
  <path d="m150 28c3.1-0.43 5.1 0.21 6.6 1.3 0.23 2.2-8.7 2.7-6.6-1.3" fill="#fff" fill-rule="evenodd" stroke-width="1.3"/>
  <path d="m76 33c0.17-3 5.6-0.57 7.9-1.3-3.2 2.1-5.7 2.9 1.3 2.6 3.5 2.3-7.8 0.98-11 1.3 0.75-1.2 3.6-2.1 1.3-2.6" fill="#fff" fill-rule="evenodd" stroke-width="1.3"/>
  <path d="m131 33c3.2 0.75 6.9 1.1 6.6 5.3-3.1 2.9-7.4-0.39-6.6-5.3" fill="#fff" fill-rule="evenodd" stroke-width="1.3"/>
  <path d="m154 33c5.6-0.68 5.8 3.9 12 2.6 4.9 3.4-9.4-1.6-6.6 4-4 0.96-3.9-2.3-7.9-1.3 2.3-2.7 4.9-0.38 2.6-5.3" fill="#fff" fill-rule="evenodd" stroke-width="1.3"/>
  <path d="m192 34c5.2-3.8 3.2 4.8 6.6 5.3-3.5 3.8-6.6-4.8-6.6-5.3" fill="#231f20" fill-rule="evenodd" stroke-width="1.3"/>
  <path d="m154 47c1.7 0.58 2.7 1.7 2.7 4-1.7-0.58-2.7-1.7-2.7-4" fill="#fff" fill-rule="evenodd" stroke-width="1.3"/>
  <path d="m168 60c-2.6 0.57-3.4 2.9-6.6 2.6-1.6-3.6-2.9-5.6-1.3-9.4 5.8-2 9.1-1.3 7.9 6.6" fill="#fff" fill-rule="evenodd" stroke-width="1.3"/>
  <path d="m170 55c4.8-3.4 9.8 4.4 11 9.4-4.3-2.3-4.6-8.7-11-9.4" fill="#fff" fill-rule="evenodd" stroke-width="1.3"/>
  <path d="m129 64c-1.8 3-8.1 6-12 2.6-0.25-9 10-9.5 12-2.6" fill="#fff" fill-rule="evenodd" stroke-width="1.3"/>
  <path d="m155 82c-3.5 0.53-4 4-7.9 4-9.2-6.2 7.3-16 7.9-4" fill="#fff" fill-rule="evenodd" stroke-width="1.3"/>
  <path d="m170 194c2.2 1.3 1.4 5.6 2.7 7.9-1.1-0.7-2.2-1.4-4-1.3-0.43-3.1 0.22-5.1 1.3-6.6" fill="#fff" fill-rule="evenodd" stroke-width="1.3"/>
  <path d="m80 195c2 1.1 2 4.3 2.7 6.6-4.6 0.94-4.8-4.7-2.7-6.6" fill="#fff" fill-rule="evenodd" stroke-width="1.3"/>
  <path d="m120 199c2.7 1.2 0.48 7.5 4 7.9-4 4-9-6-4-7.9" fill="#fff" fill-rule="evenodd" stroke-width="1.3"/>
  <path d="m100 202c2.9 2-0.95 3.2 1.3 6.6-1.2-1-3-1.4-5.3-1.3 0.39-2.7 3.6-2.6 4-5.3" fill="#fff" fill-rule="evenodd" stroke-width="1.3"/>
  <path d="m79 203h2.6v2.6h-2.6z" fill="#fff" fill-rule="evenodd" stroke-width="1.3"/>
  <path d="m54 206c-3.1 4.3-5.3-4.7 0 0" fill="#fff" fill-rule="evenodd" stroke-width="1.3"/>
  <path d="m92 208c3.2-0.55 2.9 2.5 6.6 1.3-1.2 2.9-7.4 4-6.6-1.3" fill="#fff" fill-rule="evenodd" stroke-width="1.3"/>
  <path d="m122 212h-2.7v-4c2.9-0.62 2.6 2 2.7 4" fill="#fff" fill-rule="evenodd" stroke-width="1.3"/>
  <path d="m124 211c1.7-3.4 6.5 1.4 5.3 5.3-4.8 1.3-1.1-6-5.3-5.3" fill="#fff" fill-rule="evenodd" stroke-width="1.3"/>
  <path d="m75 35c2.9-0.36 14 1 11-1.3-7 0.13-4.6-0.6-1.3-2.6-2.3 0.77-7.8-1.6-7.9 1.3 2.3 0.65-0.57 1.4-1.3 2.6m-6.6-16c2.9 0.065 9.1-3.1 5.3-5.3-1.2 2.3-4.9 2.2-5.3 5.3m30-4c1.6 0.22 1.4 2.1 1.3 4 2-0.23 4.9 0.48 5.3-1.3-3.8-3.2 2.3-3.8 5.3-6.6-4.8 0.52-8.8 1.8-12 4m-6.6-1.3c2.5-0.18 4.4-0.87 5.3-2.6-2.3 0.3-6.6-1.3-5.3 2.6m-26 6.6c0.31-2 2.2-2.2 2.6-4-2.7-1.2-6 3.5-2.6 4m-25 22c0.84-1.3-2.6 1.2-5.3 5.3-1.1 1.7 4.2-3.5 5.3-5.3m-9.4 11c-9.5 6.8 2.9-2 0 0m4 161c-3.1-0.91-3.5-4.4-6.6-5.3 4.3 5.5 9.2 10 14 14-7.3-0.51-18-14-18-21-3.4-3.5-12-7.4-9.4-14-7-6.5-12-22-14-38-4-27 4.4-61 14-79 5.5-0.84 0.68 0.18 2.7-4-0.31 0.66 3.4 1.1 4 0 0.44-0.75-1.7-1.4-1.3 0-1.8-7.2 21-29 32-35 7.4-16 21-25 36-32 5.5 1.8-1.4 7.5-2.6 11 16-3 30-10 48-6.6-11 20-49 17-70 21 5.7 2.1 31-3.2 44 2.6-12 16-35 4-51 6.6-16 2.7-29 27-38 40-1.7 1.6-2.1 0.52-4 0-1.6 14-11 30-12 49-2.1 31 9.9 64 25 79 0.22 1.6-0.3 2.3-1.3 2.6 1.7 0.68 7.4 2.5 7.9 7.9" fill="#231f20" fill-rule="evenodd" stroke-width="1.3"/>
  <path d="m19 200c3.1-0.4 1.4 3.9 4 4-0.4 2.9-4.7-1.4-4-4" fill="#231f20" fill-rule="evenodd" stroke-width="1.3"/>
  <path d="m129 217c1.1-3.9-3.6-8.7-5.3-5.3 4.2-0.65 0.49 6.6 5.3 5.3m-32-6.6c-3.8 1.1-3.5-1.8-6.6-1.3-0.78 5.5 5.5 4.3 6.6 1.3m42 4c2.5-1.3 4.4 4 5.3 0-4.6-0.55 2-7.3-1.3-6.6-0.42 3.1-4.7 2.5-4 6.6m-86-7.9c-5.3-4.7-3.1 4.3 0 0m35 4c1.2-3.5-3.2-8.1-4-5.3 3.5-0.43-1.2 7.4 4 5.3m-9.4-4h2.6v-2.6h-2.6zm16 1.3c2.3-0.096 4.2 0.3 5.3 1.3-2.3-3.4 1.6-4.7-1.3-6.6-0.39 2.7-3.6 2.6-4 5.3m30 0c-3.5-0.47-1.2-6.8-4-7.9-4.9 2 0.027 12 4 7.9m-5.3 1.3v4h2.6c-0.13-2.1 0.18-4.7-2.6-4m-36-6.6c-0.74-2.3-0.69-5.6-2.7-6.6-2.1 2-2 7.5 2.7 6.6m38-5.3c0.12-2.1 3.4-1 2.7-4-2.7-1.2-5.1 4.4-2.7 4m-70 36c9.8 7.4-7.4-11-4-5.3 3.4 4.2 2.3 4 4 5.3m144-5.3c1.4 2.9-6.5 7.7-11 9.4 1.2 3.6 4.7-1.3 6.6-1.3-18 21-90 30-125 7.9-1.6-1.7-0.52-2.1 0-4-16 0.68-21-16-31-22 1.6-2.5 11 1.2 12-5.3-4.6-1.2-11-4.3-9.4-13 2.3-1.2 2.2-5.8 5.3-2.7-0.7-1.1-1.4-2.2-1.3-4 3.1-0.42 4.9-2.1 9.4-1.3 0.057 3.4-0.99 1.7-2.6 1.3-3.5 2.3-0.48 9.2 2.6 9.4-0.18-2.5-0.88-4.4-2.6-5.3 1.2-3.6 4.9 2.6 5.3-2.6 2.9 2-0.95 3.2 1.3 6.6 5.3-0.42-1.4-4.7 4-4 0.31 9-0.11 6.2-4 6.6 0.98 1.2 2.5 2.1 4 2.7-2.7 3.1-5.2 6.4-9.4 7.9 4.4 2.7 18-3 22 0 0.84-2.9-3.8-4.3 1.3-4-0.98-1.2-2.5-2.1-4-2.7 1.1-2.5 2.2-4.9 2.6-7.9 3.6 0.42 2.3 4.2 0 5.3 1.2 2.3 4.7 2.5 6.6 4-0.58-1.7-1.7-2.7-4-2.6 0.14-2.5 4.4-0.92 4-4-6.1 4.2-0.27-3.9-6.6-4 1.6-3.1 5.2 1.8 6.6-2.6-0.87-2.2-3.1-0.83-2.7 1.3-4.4-6.1 13-14 16-5.3-9.9-6-9.8 12-1.3 12 0.32-1.8 0.092-6.1-4-7.9 4-3.9 6.4 4.8 9.4-2.7 2.1 2.3-0.47 4.8 1.3 9.4 5.8-0.25 2.5-2.3 2.6-6.6 7.5 2.2 0.16 16 5.3 17 7.3 0.51-0.27-7 6.6-7.9-1.6 4.2 0.38 3.5-1.3 6.6 2.9 0.18 5.3-1.8 5.3 4 2-2.2-0.55-3.6 1.3-7.9-5.1 6.1-1.1-4.8-7.9-5.3 0.9-3.2 8.8 3.4 9.4-2.6-4.6-4.6-1.4 2.3-5.3 1.3 0.4-10 17-14 21-5.3-3.4 0.2-4.2-2.1-6.6-2.7-6.6 4.8-0.62 21 6.6 16-5.6-2.3-1.1-7.5-7.9-9.4 0.96-4.9 7.5 4.2 6.6-2.7 2.3 0.98 0.2 2.5 0 4 3.9-0.094 4.9-3 6.6-5.3-2.3 3.1 3.6 12-2.7 14 2.9 4 4.9-3.8 7.9-4-1.8-0.82-0.2-5.1-2.7-5.3 11-0.044 3 17 6.6 21-5.5-1.1-9.8-3.6-16-4 0.72 5.7 4.9 2.9 9.4 2.7 0.12 6.8-7.3 12-12 9.4-0.81 8.3 1 14 1.3 21h-6.6c0.52-7.5 2.1-14 1.3-22-8.4 2.7-16-5.2-18-12 1.1 0.25 1.3 1.3 2.6 1.3 0.43-5.3-7-2.9-9.4-5.3-4.4 2.2-3.9 9.5-12 8.1-1.6 7.4 2.6 14 0 18h-4c-2-3.6 1.2-12 0-18-5.8-4-21-6.9-35-4-4.4 2.3 3.5 8.8-4 7.9v-6.6h-6.6c16 18 44 34 74 36 18 1.4 32-5.2 48-4-5.2-2.3 2.3-3.6 1.3-2.7 7.7-7 26-9.5 31-18" fill="#231f20" fill-rule="evenodd" stroke-width="1.3"/>
  <path d="m29 55c2.9-2-9.5 6.8 0 0" fill="#fff" fill-rule="evenodd" stroke-width="1.3"/>
  <path d="m34 48c2.7-4.2 6.1-6.6 5.3-5.3-1.2 1.8-6.4 7-5.3 5.3" fill="#fff" fill-rule="evenodd" stroke-width="1.3"/>
  <path d="m118 67c3.9 3.2 10 0.27 12-2.6-2-6.8-12-6.2-12 2.6m-21 1.3c0.16-1.7 0.4-3.1 2.6-2.6 1.8 4.7-3.8 8.6 0 11 0.26-6 6-13 2.6-18 0.64 4.2-1.7 5.5-4 6.6 0.39-0.82 3.4-5.1 0-5.3 0.62 3.4-4.7 7.5-1.3 9.4m84-4c-0.9-4.9-5.8-13-11-9.4 6.1 0.56 6.4 6.9 11 9.4m-20-11c-1.6 3.8-0.26 5.7 1.3 9.4 3.2 0.21 4.2-2.1 6.6-2.6 1.2-7.9-2.1-8.6-7.9-6.6m-4-1.3c0.072-2.3-1-3.4-2.7-4-0.072 2.3 1 3.4 2.7 4m-5.3-13c4-0.96 3.9 2.3 7.9 1.3-2.7-5.5 12-0.68 6.6-4-6.1 1.2-6.4-3.4-12-2.6 2.2 4.9-0.29 2.6-2.6 5.3m-13 0c0.2-4.2-3.4-4.6-6.6-5.3-0.77 4.9 3.6 8.2 6.6 5.3m18-9.4c-1.6-1.1-3.5-1.8-6.6-1.3-2.1 4 6.9 3.5 6.6 1.3m-13-7.9c3.9 0.74-2.1 2.1-1.3 4 3.2-0.81 9.6 1.7 11-1.3-2.1-0.12-4.7 0.18-4-2.6 2.5-0.74 12-1.1 9.4-2.7-4.8 0.95-11 0.51-14 2.7m-6.6-2.7c2-0.73 6.9 1.6 6.6-1.3-4.2 0.68-5.5-3.1-6.6 1.3m-20 11c-9.4-3.6-3.9 20-5.3 29 3.8-0.22 5.6-2.5 9.4-2.6 34 9.4-3.6 64-17 29-4 3.5-3.8 11-11 12-4-18 2.7-35 9.4-49 3.4-7 6.8-14 12-18 0.22-1.6-0.29-2.3-1.3-2.7 13-11 47-14 65-6.6-3.8 6-13 6.5-20 9.4 10 4.7 22 7.5 31 14-8.6 8.1-27 1.8-38-1.3 1.8 6.4 9.9 4.8 14 6.6 14 5.5 30 14 38 26-7.5 0.42-14-0.35-18-2.6-1.8 5.3-2.5 12-6.6 14-20 0.64-18-9.2-26-16-2.3-8.6 5.7-12 2.6-17-1.3 6.8-10 5.6-11 13-5.8-4.2-9.6-9.8-12-12-3.2-3.1-6.8-2.2-7.9-12 0.31-5.5 4.6-7 5.3-12-1.3-3.6-6.8-3-11-4-0.98 5.5-4.8 10 2.6 18-2.5 2.9-4.2-6.4-6.6-7.9 0.58-2.5-1.8-8.1 2.7-6.6" fill="#231f20" fill-rule="evenodd" stroke-width="1.3"/>
  <path d="m158 18c2.7 1.6-6.9 2-9.4 2.7-0.62 2.9 2 2.6 4 2.6-0.99 3-7.4 0.52-11 1.3-0.72-2 5.2-3.2 1.3-4 3.6-2.2 9.9-1.7 14-2.7" fill="#fff" fill-rule="evenodd" stroke-width="1.3"/>
  <path d="m211 51c2.5-2.6-5.8-5.6-6.6-9.4-2.5 2.6 5.8 5.7 6.6 9.4m-13-13c5.3-1.1 9.9 6.9 14 12 6 6.2 14 12 13 20 1.8-1.4 10 11 12 18 1.3 5.2-0.12 4.3 0 7.9 3.9 2.2 5.7 12 6.6 18 3.4 26-2.9 58-13 74-2.6 2.9 2.9-6.1 2.7-9.4-3 1.4-2.3 6.5-5.3 7.9 3.1-8.2 12-27 13-47 1.4-21-4.9-39-6.6-53-1.8 0.44-8.6-7.9-5.3-12-4.8 0.44-7.5-11-14-20-5.7-7-14-11-16-14-0.74-1.2 2.7-5.6-1.3-4" fill="#231f20" fill-rule="evenodd" stroke-width="1.3"/>
  <path d="m205 42c0.83 3.6 9.1 6.8 6.6 9.4-0.84-3.6-9.1-6.8-6.6-9.4" fill="#fff" fill-rule="evenodd" stroke-width="1.3"/>
  <path d="m98 59c3.2 0.2 0.39 4.6 0 5.3 2.3-1.2 4.7-2.5 4-6.6 3.2 5.1-2.5 13-2.6 18-3.8-2.1 1.8-6 0-11-2.2-0.49-2.5 1-2.6 2.6-3.4-1.8 2-5.8 1.3-9.4" fill="#fff" fill-rule="evenodd" stroke-width="1.3"/>
  <path d="m46 228c-3.4-5.7 14 13 4 5.3-1.7-1.3-0.68-1.1-4-5.3" fill="#fff" fill-rule="evenodd" stroke-width="1.3"/>
  <path d="m123 193c0.73 3-2.6 2-2.7 4-2.3 0.39-0.081-5.2 2.7-4" fill="#fff" fill-rule="evenodd" stroke-width="1.3"/>
  <path d="m166 200c0.82-2 1.6 0.13 0 0" fill="#fff" fill-rule="evenodd" stroke-width="1.3"/>
  <path d="m85 204c0.74-2.7 5.2 1.8 4 5.3-5.2 2.1-0.47-5.7-4-5.3" fill="#fff" fill-rule="evenodd" stroke-width="1.3"/>
  <path d="m174 204c0.12-2.5 5.7 0.32 4 4-4.7 2.1-0.81-4.6-4-4" fill="#fff" fill-rule="evenodd" stroke-width="1.3"/>
  <path d="m144 207c3.4-0.65-3.2 6.1 1.3 6.6-0.88 4-2.9-1.3-5.3 0-0.64-4.2 3.6-3.5 4-6.6" fill="#fff" fill-rule="evenodd" stroke-width="1.3"/>
  <path d="m198 223c3.6 0.56 6.1-6.9 12-7.9-3.2 5.2-8.8 8.1-12 13-3.9-0.75 2.1-2.1 1.3-4 0.25-1.1-0.52-1.3-1.3-1.3" fill="#231f20" fill-rule="evenodd" stroke-width="1.3"/>
  <path d="m194 219c1.2-4 9.6 1.1 1.3 0-1.6 1.6-3.4 0.52-1.3 0" fill="#231f20" fill-rule="evenodd" stroke-width="1.3"/>
  <path d="m161 219c-0.98 1.2-2.5 2.1-4 2.7-3.4-0.57 2.2-2.9 4-2.7" fill="#231f20" fill-rule="evenodd" stroke-width="1.3"/>
  <path d="m148 86c4-0.022 4.6-3.5 7.9-4-0.68-11-17-2.2-7.9 4m9.4-11c1.1-0.25 1.3 0.52 1.3 1.3-0.13 3.9 4 7.4 4 13 5e-3 9.4-6.4 21-14 21-18 0.53-20-38-1.3-39 4.4-0.26 5.2 3.9 11 2.6" fill="#231f20" fill-rule="evenodd" stroke-width="1.3"/>
</svg>
