<svg version="1.1" viewBox="0 0 253 261" xmlns="http://www.w3.org/2000/svg">
  <defs>
    <clipPath id="a">
      <path d="m0 1e3h1280v-1e3h-1280z"/>
    </clipPath>
  </defs>
  <g transform="matrix(1.3 0 0 -1.3 -730 811)">
    <g>
      <g clip-path="url(#a)">
        <g transform="translate(623 600)">
          <path d="m0 0c-0.67-1.4-2.2-1.9-4.1-2-1 3.1 2.3 1.8 4.1 2" fill="#fff" fill-rule="evenodd"/>
        </g>
        <g transform="translate(633 600)">
          <path d="m0 0c-2.3-2.2-7-2.6-4.1-5.1-0.32-1.4-2.6-0.85-4.1-1 0.088 1.5 0.17 2.9-1 3.1 2.4 1.7 5.5 2.7 9.2 3.1" fill="#fff" fill-rule="evenodd"/>
        </g>
        <g transform="translate(605 598)">
          <path d="m0 0c2.9-1.7-1.9-4.1-4.1-4.1 0.33 2.4 3.2 2.3 4.1 4.1" fill="#fff" fill-rule="evenodd"/>
        </g>
        <g transform="translate(659 596)">
          <path d="m0 0c0.17-2.2-3.6-0.46-5.1-1 0.94 3.4 1.9 0.51 5.1 1" fill="#fff" fill-rule="evenodd"/>
        </g>
        <g transform="translate(600 596)">
          <path d="m0 0c-0.36-1.3-1.8-1.6-2-3.1-2.6 0.42-0.06 4 2 3.1" fill="#fff" fill-rule="evenodd"/>
        </g>
        <g transform="translate(692 585)">
          <path d="m0 0c0.83 0.54 1.7 1.1 3.1 1 2.3-1.5-1.3-2.5 1-3.1-3.1-2.4-5.7 4.5-10 4.1-0.57 2.3 2 1.5 2 3.1 0.82-4 5.2-0.56 4.1-5.1" fill="#231f20" fill-rule="evenodd"/>
        </g>
        <g transform="translate(664 588)">
          <path d="m0 0c2.4 0.33 3.9-0.16 5.1-1 0.18-1.7-6.7-2.1-5.1 1" fill="#fff" fill-rule="evenodd"/>
        </g>
        <g transform="translate(607 584)">
          <path d="m0 0c0.13 2.3 4.3 0.44 6.1 1-2.5-1.6-4.4-2.2 1-2 2.7-1.8-6-0.75-8.2-1 0.58 0.96 2.8 1.6 1 2" fill="#fff" fill-rule="evenodd"/>
        </g>
        <g transform="translate(649 584)">
          <path d="m0 0c2.5-0.58 5.3-0.88 5.1-4.1-2.4-2.2-5.7 0.3-5.1 4.1" fill="#fff" fill-rule="evenodd"/>
        </g>
        <g transform="translate(667 584)">
          <path d="m0 0c4.3 0.52 4.5-3 9.2-2 3.8-2.6-7.2 1.2-5.1-3.1-3.1-0.74-3 1.8-6.1 1 1.8 2.1 3.8 0.29 2 4.1" fill="#fff" fill-rule="evenodd"/>
        </g>
        <g transform="translate(696 583)">
          <path d="m0 0c4 2.9 2.5-3.7 5.1-4.1-2.7-2.9-5.1 3.7-5.1 4.1" fill="#231f20" fill-rule="evenodd"/>
        </g>
        <g transform="translate(667 573)">
          <path d="m0 0c1.3-0.45 2.1-1.3 2.1-3.1-1.3 0.45-2.1 1.3-2.1 3.1" fill="#fff" fill-rule="evenodd"/>
        </g>
        <g transform="translate(678 563)">
          <path d="m0 0c-2-0.44-2.6-2.2-5.1-2-1.2 2.8-2.2 4.3-1 7.2 4.5 1.5 7 1 6.1-5.1" fill="#fff" fill-rule="evenodd"/>
        </g>
        <g transform="translate(679 567)">
          <path d="m0 0c3.7 2.6 7.5-3.4 8.2-7.2-3.3 1.8-3.5 6.7-8.2 7.2" fill="#fff" fill-rule="evenodd"/>
        </g>
        <g transform="translate(648 560)">
          <path d="m0 0c-1.4-2.3-6.2-4.6-9.2-2-0.19 6.9 7.7 7.3 9.2 2" fill="#fff" fill-rule="evenodd"/>
        </g>
        <g transform="translate(668 546)">
          <path d="m0 0c-2.7-0.41-3.1-3.1-6.1-3.1-7.1 4.8 5.6 12 6.1 3.1" fill="#fff" fill-rule="evenodd"/>
        </g>
        <g transform="translate(679 460)">
          <path d="m0 0c1.7-1 1.1-4.3 2.1-6.1-0.82 0.54-1.7 1.1-3.1 1-0.33 2.4 0.17 3.9 1 5.1" fill="#fff" fill-rule="evenodd"/>
        </g>
        <g transform="translate(610 459)">
          <path d="m0 0c1.5-0.87 1.5-3.3 2.1-5.1-3.5-0.72-3.7 3.6-2.1 5.1" fill="#fff" fill-rule="evenodd"/>
        </g>
        <g transform="translate(641 456)">
          <path d="m0 0c2.1-0.92 0.37-5.8 3.1-6.1-3.1-3.1-6.9 4.6-3.1 6.1" fill="#fff" fill-rule="evenodd"/>
        </g>
        <g transform="translate(625 454)">
          <path d="m0 0c2.2-1.5-0.73-2.5 1-5.1-0.91 0.8-2.3 1.1-4.1 1 0.3 2.1 2.8 2 3.1 4.1" fill="#fff" fill-rule="evenodd"/>
        </g>
        <path d="m609 453h2v-2h-2z" fill="#fff" fill-rule="evenodd"/>
        <g transform="translate(590 451)">
          <path d="m0 0c-2.4-3.3-4.1 3.6 0 0" fill="#fff" fill-rule="evenodd"/>
        </g>
        <g transform="translate(619 449)">
          <path d="m0 0c2.5 0.42 2.2-1.9 5.1-1-0.91-2.2-5.7-3.1-5.1 1" fill="#fff" fill-rule="evenodd"/>
        </g>
        <g transform="translate(642 446)">
          <path d="m0 0h-2.1v3.1c2.2 0.48 2-1.5 2.1-3.1" fill="#fff" fill-rule="evenodd"/>
        </g>
        <g transform="translate(644 447)">
          <path d="m0 0c1.3 2.6 5-1.1 4.1-4.1-3.7-0.99-0.86 4.6-4.1 4.1" fill="#fff" fill-rule="evenodd"/>
        </g>
        <g transform="translate(606 582)">
          <path d="m0 0c2.2 0.28 11-0.79 8.2 1-5.4-0.1-3.5 0.46-1 2-1.8-0.59-6 1.2-6.1-1 1.8-0.5-0.44-1.1-1-2m-5.1 12c2.2-0.05 7 2.4 4.1 4.1-0.93-1.8-3.8-1.7-4.1-4.1m23 3.1c1.2-0.17 1.1-1.6 1-3.1 1.5 0.18 3.8-0.37 4.1 1-2.9 2.5 1.8 2.9 4.1 5.1-3.7-0.4-6.8-1.4-9.2-3.1m-5.1 1c1.9 0.14 3.4 0.67 4.1 2-1.8-0.23-5.1 1-4.1-2m-20-5.1c0.24 1.5 1.7 1.7 2 3.1-2.1 0.9-4.6-2.7-2-3.1m-19-17c0.65 0.97-2-0.89-4.1-4.1-0.84-1.3 3.2 2.7 4.1 4.1m-7.2-8.2c-7.3-5.2 2.2 1.5 0 0m3.1-124c-2.4 0.7-2.7 3.4-5.1 4.1 3.3-4.2 7.1-7.9 11-11-5.6 0.39-14 11-14 16-2.6 2.7-8.9 5.7-7.2 11-5.4 5-9.6 17-11 29-3.1 21 3.4 47 11 61 4.2 0.65 0.52-0.14 2.1 3.1-0.24-0.51 2.6-0.82 3.1 0 0.34 0.58-1.3 1.1-1 0-1.4 5.5 16 22 25 27 5.7 12 16 19 28 25 4.2-1.4-1.1-5.8-2-8.2 12 2.3 23 7.8 37 5.1-8.5-15-38-13-54-16 4.4-1.6 24 2.5 34-2-9.4-12-27-3.1-39-5.1-12-2.1-22-21-29-31-1.3-1.2-1.6-0.4-3.1 0-1.2-11-8.2-23-9.2-38-1.6-24 7.6-49 19-61 0.17-1.2-0.23-1.8-1-2 1.3-0.52 5.7-1.9 6.1-6.1" fill="#231f20" fill-rule="evenodd"/>
        </g>
        <g transform="translate(563 455)">
          <path d="m0 0c2.4 0.31 1.1-3 3.1-3.1-0.31-2.2-3.6 1.1-3.1 3.1" fill="#231f20" fill-rule="evenodd"/>
        </g>
        <g transform="translate(648 442)">
          <path d="m0 0c0.87 3-2.8 6.7-4.1 4.1 3.2 0.5 0.38-5.1 4.1-4.1m-25 5.1c-2.9-0.85-2.7 1.4-5.1 1-0.6-4.2 4.2-3.3 5.1-1m32-3.1c1.9 0.98 3.4-3.1 4.1 0-3.5 0.42 1.5 5.6-1 5.1-0.32-2.4-3.6-1.9-3.1-5.1m-66 6.1c-4.1 3.6-2.4-3.3 0 0m27-3.1c0.89 2.7-2.5 6.2-3.1 4.1 2.7 0.33-0.96-5.7 3.1-4.1m-7.2 3.1h2v2h-2zm12-1c1.8 0.074 3.2-0.23 4.1-1-1.8 2.6 1.2 3.6-1 5.1-0.3-2.1-2.8-2-3.1-4.1m23 0c-2.7 0.36-0.92 5.2-3.1 6.1-3.8-1.5 0.021-9.2 3.1-6.1m-4.1-1v-3.1h2c-0.099 1.6 0.14 3.6-2 3.1m-28 5.1c-0.57 1.8-0.53 4.3-2.1 5.1-1.6-1.5-1.5-5.8 2.1-5.1m29 4.1c0.092 1.6 2.6 0.8 2.1 3.1-2.1 0.9-3.9-3.4-2.1-3.1m-54-28c7.5-5.7-5.7 8.5-3.1 4.1 2.6-3.2 1.8-3.1 3.1-4.1m111 4.1c1.1-2.2-5-5.9-8.2-7.2 0.93-2.8 3.6 1 5.1 1-14-16-69-23-96-6.1-1.2 1.3-0.4 1.6 0 3.1-12-0.52-16 12-24 17 1.2 1.9 8.7-0.92 9.2 4.1-3.5 0.9-8.4 3.3-7.2 10 1.8 0.91 1.7 4.5 4.1 2.1-0.54 0.82-1.1 1.7-1 3.1 2.4 0.32 3.8 1.6 7.2 1 0.044-2.6-0.76-1.3-2-1-2.7-1.8-0.37-7.1 2-7.2-0.14 1.9-0.68 3.4-2 4.1 0.93 2.8 3.8-2 4.1 2 2.2-1.5-0.73-2.5 1-5.1 4.1 0.32-1.1 3.6 3.1 3.1 0.24-6.9-0.081-4.8-3.1-5.1 0.75-0.96 1.9-1.6 3.1-2.1-2.1-2.4-4-4.9-7.2-6.1 3.4-2.1 14 2.3 17 0 0.65 2.2-2.9 3.3 1 3.1-0.75 0.96-1.9 1.6-3.1 2.1 0.82 1.9 1.7 3.8 2 6.1 2.8-0.32 1.8-3.2 0-4.1 0.93-1.8 3.6-1.9 5.1-3.1-0.45 1.3-1.3 2.1-3.1 2 0.11 1.9 3.4 0.71 3.1 3.1-4.7-3.2-0.21 3-5.1 3.1 1.2 2.4 4-1.4 5.1 2-0.67 1.7-2.4 0.64-2.1-1-3.4 4.7 10 11 12 4.1-7.6 4.6-7.5-9.3-1-9.2 0.25 1.4 0.071 4.7-3.1 6.1 3.1 3 4.9-3.7 7.2 2.1 1.6-1.8-0.36-3.7 1-7.2 4.5 0.19 1.9 1.8 2 5.1 5.8-1.7 0.12-12 4.1-13 5.6-0.39-0.21 5.4 5.1 6.1-1.2-3.2 0.29-2.7-1-5.1 2.2-0.14 4.1 1.4 4.1-3.1 1.5 1.7-0.42 2.8 1 6.1-3.9-4.7-0.83 3.7-6.1 4.1 0.69 2.5 6.8-2.6 7.2 2-3.5 3.5-1.1-1.8-4.1-1 0.31 7.7 13 11 16 4.1-2.6-0.15-3.2 1.6-5.1 2.1-5.1-3.7-0.48-16 5.1-12-4.3 1.8-0.83 5.8-6.1 7.2 0.74 3.8 5.8-3.2 5.1 2.1 1.8-0.75 0.15-1.9 0-3.1 3 0.072 3.8 2.3 5.1 4.1-1.8-2.4 2.8-9.6-2.1-11 2.2-3.1 3.8 2.9 6.1 3.1-1.4 0.63-0.15 3.9-2.1 4.1 8.1 0.034 2.3-13 5.1-16-4.2 0.88-7.5 2.8-12 3.1 0.55-4.4 3.8-2.2 7.2-2.1 0.095-5.2-5.6-9-9.2-7.2-0.62-6.4 0.78-11 1-16h-5.1c0.4 5.8 1.6 11 1 17-6.5-2.1-12 4-14 9.2 0.83-0.19 1-1 2-1 0.33 4.1-5.4 2.2-7.2 4.1-3.4-1.7-3-7.3-9.2-6.2-1.2-5.7 2-11 0-14h-3.1c-1.5 2.8 0.93 8.9 0 14-4.5 3.1-16 5.3-27 3.1-3.4-1.8 2.7-6.8-3.1-6.1v5.1h-5.1c12-14 34-26 57-28 14-1.1 25 4 37 3.1-4 1.8 1.8 2.8 1 2.1 5.9 5.4 20 7.3 24 14" fill="#231f20" fill-rule="evenodd"/>
        </g>
        <g transform="translate(571 567)">
          <path d="m0 0c2.2 1.5-7.3-5.2 0 0" fill="#fff" fill-rule="evenodd"/>
        </g>
        <g transform="translate(575 572)">
          <path d="m0 0c2.1 3.2 4.7 5.1 4.1 4.1-0.92-1.4-4.9-5.4-4.1-4.1" fill="#fff" fill-rule="evenodd"/>
        </g>
        <g transform="translate(639 558)">
          <path d="m0 0c3-2.5 7.8-0.21 9.2 2-1.5 5.2-9.4 4.8-9.2-2m-16-1c0.12 1.3 0.31 2.4 2 2 1.4-3.6-2.9-6.6 0-8.2 0.2 4.6 4.6 10 2 14 0.49-3.2-1.3-4.2-3.1-5.1 0.3 0.63 2.6 3.9 0 4.1 0.48-2.6-3.6-5.8-1-7.2m65 3.1c-0.69 3.8-4.5 9.8-8.2 7.2 4.7-0.43 4.9-5.3 8.2-7.2m-15 8.2c-1.2-2.9-0.2-4.4 1-7.2 2.5-0.16 3.2 1.6 5.1 2 0.89 6.1-1.6 6.6-6.1 5.1m-3.1 1c0.055 1.8-0.79 2.6-2.1 3.1-0.055-1.8 0.79-2.6 2.1-3.1m-4.1 10c3.1 0.74 3-1.8 6.1-1-2.1 4.2 8.9 0.52 5.1 3.1-4.7-0.95-4.9 2.6-9.2 2 1.7-3.8-0.22-2-2-4.1m-10 0c0.15 3.2-2.6 3.5-5.1 4.1-0.59-3.8 2.8-6.3 5.1-4.1m14 7.2c-1.2 0.86-2.7 1.4-5.1 1-1.6-3.1 5.3-2.7 5.1-1m-10 6.1c3-0.57-1.6-1.6-1-3.1 2.5 0.62 7.4-1.3 8.2 1-1.6 0.096-3.6-0.14-3.1 2 1.9 0.57 9.3 0.84 7.2 2.1-3.7-0.73-8.5-0.39-11-2.1m-5.1 2.1c1.5 0.56 5.3-1.2 5.1 1-3.2-0.52-4.2 2.4-5.1-1m-15-8.2c-7.2 2.8-3-15-4.1-22 2.9 0.17 4.3 1.9 7.2 2 26-7.2-2.8-49-13-22-3.1-2.7-2.9-8.7-8.2-9.2-3.1 14 2.1 27 7.2 38 2.6 5.4 5.2 11 9.2 14 0.17 1.2-0.22 1.8-1 2.1 9.8 8.2 36 11 50 5.1-2.9-4.6-10-5-15-7.2 8-3.6 17-5.8 24-11-6.6-6.2-21-1.4-29 1 1.4-4.9 7.6-3.7 11-5.1 11-4.2 23-11 29-20-5.8-0.32-11 0.27-14 2-1.4-4.1-1.9-9-5.1-11-15-0.49-14 7.1-20 12-1.8 6.6 4.4 9.4 2 13-0.99-5.2-8-4.3-8.2-10-4.5 3.2-7.4 7.5-9.2 9.2-2.5 2.4-5.2 1.7-6.1 9.2 0.24 4.2 3.5 5.4 4.1 9.2-0.97 2.8-5.2 2.3-8.2 3.1-0.75-4.2-3.7-7.7 2-14-1.9-2.2-3.2 4.9-5.1 6.1 0.45 1.9-1.4 6.2 2.1 5.1" fill="#231f20" fill-rule="evenodd"/>
        </g>
        <g transform="translate(670 595)">
          <path d="m0 0c2.1-1.2-5.3-1.5-7.2-2.1-0.48-2.2 1.5-2 3.1-2-0.76-2.3-5.7-0.4-8.2-1-0.55 1.5 4 2.5 1 3.1 2.8 1.7 7.6 1.3 11 2.1" fill="#fff" fill-rule="evenodd"/>
        </g>
        <g transform="translate(711 570)">
          <path d="m0 0c1.9 2-4.5 4.3-5.1 7.2-1.9-2 4.5-4.4 5.1-7.2m-10 10c4.1 0.86 7.6-5.3 11-9.2 4.6-4.8 11-9.5 10-15 1.4 1.1 7.7-8.6 9.2-14 1-4-0.095-3.3 0-6.1 3-1.7 4.4-9.1 5.1-14 2.6-20-2.2-45-10-57-2-2.2 2.2 4.7 2.1 7.2-2.3-1.1-1.8-5-4.1-6.1 2.4 6.3 9.2 21 10 36 1.1 16-3.8 30-5.1 41-1.4-0.34-6.6 6.1-4.1 9.2-3.7-0.34-5.8 8.6-11 15-4.4 5.4-11 8.6-12 11-0.57 0.92 2.1 4.3-1 3.1" fill="#231f20" fill-rule="evenodd"/>
        </g>
        <g transform="translate(706 577)">
          <path d="m0 0c0.64-2.8 7-5.2 5.1-7.2-0.65 2.8-7 5.2-5.1 7.2" fill="#fff" fill-rule="evenodd"/>
        </g>
        <g transform="translate(624 564)">
          <path d="m0 0c2.5-0.15 0.3-3.5 0-4.1 1.8 0.94 3.6 1.9 3.1 5.1 2.5-3.9-1.9-9.7-2-14-2.9 1.6 1.4 4.6 0 8.2-1.7 0.38-1.9-0.8-2-2-2.6 1.4 1.5 4.5 1 7.2" fill="#fff" fill-rule="evenodd"/>
        </g>
        <g transform="translate(584 434)">
          <path d="m0 0c-2.6 4.4 11-9.8 3.1-4.1-1.3 0.98-0.52 0.87-3.1 4.1" fill="#fff" fill-rule="evenodd"/>
        </g>
        <g transform="translate(643 461)">
          <path d="m0 0c0.56-2.3-2-1.5-2.1-3.1-1.8-0.3-0.062 4 2.1 3.1" fill="#fff" fill-rule="evenodd"/>
        </g>
        <g transform="translate(676 455)">
          <path d="m0 0c0.63 1.5 1.2-0.1 0 0" fill="#fff" fill-rule="evenodd"/>
        </g>
        <g transform="translate(614 452)">
          <path d="m0 0c0.57 2.1 4-1.4 3.1-4.1-4-1.6-0.36 4.4-3.1 4.1" fill="#fff" fill-rule="evenodd"/>
        </g>
        <g transform="translate(682 452)">
          <path d="m0 0c0.092 1.9 4.4-0.25 3.1-3.1-3.6-1.6-0.62 3.5-3.1 3.1" fill="#fff" fill-rule="evenodd"/>
        </g>
        <g transform="translate(659 450)">
          <path d="m0 0c2.6 0.5-2.5-4.7 1-5.1-0.68-3.1-2.2 0.98-4.1 0-0.49 3.2 2.8 2.7 3.1 5.1" fill="#fff" fill-rule="evenodd"/>
        </g>
        <g transform="translate(701 438)">
          <path d="m0 0c2.8-0.43 4.7 5.3 9.2 6.1-2.5-4-6.8-6.2-9.2-10-3 0.58 1.6 1.6 1 3.1 0.19 0.87-0.4 0.97-1 1" fill="#231f20" fill-rule="evenodd"/>
        </g>
        <g transform="translate(698 441)">
          <path d="m0 0c0.96 3.1 7.4-0.85 1 0-1.2-1.2-2.6-0.4-1 0" fill="#231f20" fill-rule="evenodd"/>
        </g>
        <g transform="translate(672 441)">
          <path d="m0 0c-0.75-0.96-1.9-1.6-3.1-2.1-2.6 0.44 1.7 2.2 3.1 2.1" fill="#231f20" fill-rule="evenodd"/>
        </g>
        <g transform="translate(662 543)">
          <path d="m0 0c3.1 0.017 3.5 2.7 6.1 3.1-0.52 8.5-13 1.7-6.1-3.1m7.2 8.2c0.81 0.19 1-0.4 1-1-0.099-3 3.1-5.7 3.1-10 4e-3 -7.2-4.9-16-11-16-14-0.41-15 29-1 30 3.4 0.2 4-3 8.2-2" fill="#231f20" fill-rule="evenodd"/>
        </g>
        <g transform="translate(685 449)">
          <path d="m0 0c1.3 2.8-3 5-3.1 3.1 2.5 0.41-0.57-4.7 3.1-3.1m-9.2 6.1c1.2-0.1 0.63 1.5 0 0m2 0c1.4 0.042 2.3-0.48 3.1-1-0.94 1.8-0.35 5.1-2.1 6.1-0.86-1.2-1.4-2.7-1-5.1m11 0c2.2-2.8 5.2 2.2 4.1 6.1 3-1.2 4.1-8.2 2-11-2.4 0.28-2.4 2.7-1 4.1-2.6 0.18-3.2-1.6-4.1-3.1 1-2.4 6.9 0.029 6.1-4.1-3.4 0.34-4.5 3-9.2 2-2.2-0.28 1.5-2.7-1-4.1 2.1 0.59 2.9 2.5 6.1 2.1-0.58-4.3-4.2-7.1-8.2-5.1 1.2-3.7 1.7-12 1-14h-3.1c-0.96 2.2 0.63 9.2 0 14-6.4-2.4-9.5 7.5-13 10 2.9 0.12 0.53 5.6 4.1 5.1 0.43-2.1-0.7-2.7-1-4.1 3.6-1.6 0.62 3.5 3.1 3.1 0.3 2.7-4 0.81-3.1 4.1 2.5-0.11 3.2-1.9 5.1 0-9.7 0.12 8.1 12 10 3.1-1.5 0.53-2.6 1.5-4.1 2-4.2-3.9-0.36-13 4.1-10-1.9 1.9-3.3 4.2-4.1 7.2 3.8-0.27 4.9-3.4 7.2 1 0.29-2.1 2.2-8.1-1-8.2" fill="#231f20" fill-rule="evenodd"/>
        </g>
      </g>
    </g>
  </g>
</svg>
