<svg version="1.1" viewBox="0 0 259 237" xmlns="http://www.w3.org/2000/svg">
  <path d="m44 52c-18 8.7-31 20-25 49 6.8 30 30 56 58 82 26 25 61 52 95 46 13-2.6 18-18 23-27-12-11-29-18-42-29-13 3.6-9.2 20-25 21-13 1.2-40-25-47-32-11-12-30-32-29-44 1.3-13 18-12 21-25-11-12-17-31-30-42m30-42c-2 0.62-3.1 2-3 4.6 3.2 21-4.3 38 0 56 2.5 11 13 16 12 25-1.3 13-20 12-20 25 3.9 6.9 8.1 18 17 21 9.1 2.7 26 0 42 0h126c-1-43 2.1-91-1.6-131zm181-6.1c5.5 21 3.1 47 3.1 72s1.2 51-1.6 72c-25 5.5-53 3-82 3h-86c5.6 12 25 25 38 34 13-2.7 11-20 25-21 9.6-1.1 21 10 29 16 6.8 4.4 23 14 25 20 2.3 11-14 32-21 36-6.8 3.4-16 4-27 3-53-4.4-151-88-156-144-0.68-6.9-2.2-22 0.42-27 2.2-4.4 35-25 46-23 10 0.78 9 6.9 17 16 1.8-18-4.4-44 4.6-55 25-2.6 65-1.6 99-1.6 31 0 64-2.3 88 3" fill="#231f20" fill-rule="evenodd" stroke-width="1.3"/>
  <path d="m160 74c20-14 39-27 60-43 5.6-4.3 11-14 20-11-1 9.5-10 14-17 20-13 9.8-26 17-42 29-7.4 5.7-13 14-21 14-9.5-0.049-34-22-42-27-14-11-26-20-38-30-0.43-2.5 1.4-2.6 1.6-4.6 1.2-0.29 1.6-1.6 3-1.6 26 17 49 38 75 55" fill="#231f20" fill-rule="evenodd" stroke-width="1.3"/>
  <path d="m132 80c-3.6 12-16 21-23 29-7.7 8.3-14 20-27 23-1.4-10 12-20 20-27 8.2-8.4 16-18 23-26 3.5-0.49 5.8 0.25 7.7 1.6" fill="#231f20" fill-rule="evenodd" stroke-width="1.3"/>
  <path d="m190 79h4.6c7.3 8.4 16 17 25 26 7.3 7.8 20 16 18 27-13-2.1-18-14-26-23-7.7-8.1-17-16-23-25-3.1-3.1 0.68-3 1.6-6.1" fill="#231f20" fill-rule="evenodd" stroke-width="1.3"/>
</svg>
