<svg version="1.1" viewBox="0 0 267 244" xmlns="http://www.w3.org/2000/svg">
  <defs>
    <clipPath id="a">
      <path d="m0 1e3h1280v-1e3h-1280z"/>
    </clipPath>
  </defs>
  <g transform="matrix(1.3 0 0 -1.3 -717 801)">
    <g>
      <g clip-path="url(#a)">
        <g transform="translate(573 561)">
          <path d="m0 0c-14-6.7-24-15-19-38 5.2-23 23-43 45-63 20-19 47-40 73-35 10 2 14 14 18 21-9.5 8.5-22 14-32 22-10-2.8-7.1-15-19-16-10-0.91-31 19-36 25-8.6 8.9-23 25-22 34 1 10 14 9.2 16 19-8.8 9.6-13 24-23 32m23 32c-1.5-0.48-2.4-1.5-2.3-3.5 2.5-16-3.3-29 0-43 1.9-8.2 10-12 9.4-19-0.99-9.9-15-9.5-15-19 3-5.3 6.2-14 13-16 7-2.1 20 0 32 0h97c-0.77 33 1.6 70-1.2 101zm139 4.7c4.2-16 2.4-36 2.4-55 0-19 0.92-39-1.2-55-19-4.2-41-2.3-63-2.3h-66c4.3-9.4 19-19 29-26 9.9 2.1 8.8 15 19 16 7.4 0.87 16-7.7 22-12 5.2-3.4 18-11 19-15 1.8-8.2-11-25-16-28-5.2-2.6-12-3.1-21-2.3-41 3.4-116 68-120 111-0.52 5.3-1.7 17 0.32 21 1.7 3.4 27 19 35 18 7.7-0.6 6.9-5.3 13-12 1.4 14-3.4 34 3.5 42 19 2 50 1.2 76 1.2 24 0 49 1.8 68-2.3" fill="#231f20" fill-rule="evenodd"/>
        </g>
        <g transform="translate(684 535)">
          <path d="m0 0c4.9-7.2 12-13 18-19 5.8-6.2 9.9-16 20-18 1.4 9-8.5 15-14 21-6.3 6.9-13 13-19 20h-3.5c-0.66-2.4-3.5-2.3-1.2-4.7m-49 4.7c-5.6-6.1-11-13-18-20-5.8-6-16-13-15-21 9.7 2.2 15 11 21 18 6.1 6.6 15 13 18 22-1.4 0.98-3.2 1.6-5.9 1.2m-31 46c-1.2 4e-3 -1.4-0.95-2.3-1.2-0.064-1.5-1.5-1.6-1.2-3.5 9.2-8 18-15 29-23 6-4.6 24-21 32-21 6-0.034 11 6.2 16 11 11 8.8 22 15 32 22 5.1 3.8 12 8 13 15-7.1 3-11-4.9-15-8.2-15-12-31-22-46-33-20 13-37 29-58 42m125 7c2.7-31 0.4-68 1.2-101h-97c-12 0-25-2.1-32 0-6.7 2-9.9 11-13 16 0.38 9.3 14 8.9 15 19 0.68 6.8-7.5 11-9.4 19-3.3 14 2.5 28 0 43-0.051 2 0.88 3 2.3 3.5z" fill="#fff" fill-rule="evenodd"/>
        </g>
        <g transform="translate(662 544)">
          <path d="m0 0c15 11 30 21 46 33 4.3 3.3 8.2 11 15 8.2-0.77-7.3-7.8-11-13-15-10-7.5-20-13-32-22-5.7-4.4-10-11-16-11-7.3 0.038-26 17-32 21-11 8.8-20 15-29 23-0.33 1.9 1.1 2 1.2 3.5 0.95 0.22 1.2 1.2 2.3 1.2 20-13 38-29 58-42" fill="#231f20" fill-rule="evenodd"/>
        </g>
        <g transform="translate(596 530)">
          <path d="m0 0c-2.2-9.6-15-8.4-16-19-0.92-9.2 14-25 22-34 5.1-5.3 26-26 36-25 12 1 8.3 14 19 16 9.9-8.1 22-14 32-22-3.8-7.3-7.6-19-18-21-26-5-53 16-73 35-21 21-38 39-50 59-15 26 9.9 35 24 42 11-7.9 15-22 23-32" fill="#fff" fill-rule="evenodd"/>
        </g>
        <g transform="translate(641 539)">
          <path d="m0 0c-2.8-9.5-12-16-18-22-5.9-6.4-11-15-21-18-1.1 8 9.5 15 15 21 6.3 6.5 12 14 18 20 2.7 0.38 4.5-0.19 5.9-1.2" fill="#231f20" fill-rule="evenodd"/>
        </g>
        <g transform="translate(685 540)">
          <path d="m0 0h3.5c5.6-6.5 12-13 19-20 5.6-6 15-12 14-21-10 1.6-14 11-20 18-5.9 6.2-13 12-18 19-2.4 2.4 0.52 2.3 1.2 4.7" fill="#231f20" fill-rule="evenodd"/>
        </g>
      </g>
    </g>
  </g>
</svg>
