<svg version="1.1" viewBox="0 0 215 261" xmlns="http://www.w3.org/2000/svg">
  <defs>
    <clipPath id="j">
      <path d="m-728-505h1664v1300h-1664z" stroke-width="1.3"/>
    </clipPath>
    <clipPath id="i">
      <path d="m-728-505h1664v1300h-1664z" stroke-width="1.3"/>
    </clipPath>
    <clipPath id="h">
      <path d="m-728-505h1664v1300h-1664z" stroke-width="1.3"/>
    </clipPath>
    <clipPath id="g">
      <path d="m-728-505h1664v1300h-1664z" stroke-width="1.3"/>
    </clipPath>
    <clipPath id="f">
      <path d="m-728-505h1664v1300h-1664z" stroke-width="1.3"/>
    </clipPath>
    <clipPath id="e">
      <path d="m-728-505h1664v1300h-1664z" stroke-width="1.3"/>
    </clipPath>
    <clipPath id="d">
      <path d="m-728-505h1664v1300h-1664z" stroke-width="1.3"/>
    </clipPath>
    <clipPath id="c">
      <path d="m-728-505h1664v1300h-1664z" stroke-width="1.3"/>
    </clipPath>
    <clipPath id="b">
      <path d="m-728-505h1664v1300h-1664z" stroke-width="1.3"/>
    </clipPath>
    <clipPath id="a">
      <path d="m162 188c-2.9 9.6-20 6.4-32 6.4s-29 2.5-35-3.9c-0.55-2.7 0.88-3.4 1.3-5.1 1-0.25 1.3-1.3 2.6-1.3h34c11 0 23-2.7 30 3.9" fill="#231f20" fill-rule="evenodd" stroke-width="1.3"/>
    </clipPath>
  </defs>
  <path transform="translate(.18 -.14)" d="m-728-505h1664v1300h-1664v-1300z" clip-path="url(#a)" stroke-width="1.3"/>
  <path transform="translate(.18 -.14)" d="m90 22c2.3 7.3 9.8 18-3.9 17-8.3-0.68-18 12-3.8 8.3 19-0.24 38 1.6 57-1.1-2.6-9.8-25-4.1-19-17 8.8-8.2-1.8-21-12-20-8.2-0.82-19 3.2-20 13m44 7.7c9.1 3.1 26 20 14 26-19 3.4-39 0.1-59 1.6-9.5-0.77-32 3.2-25-12 1.7-12 22-9.9 16-23-0.3-15 17-23 30-22 13 0.07 27 9.9 24 24-0.19 1.8-0.57 3.5-1.1 5.2" clip-path="url(#i)" fill="#231f20" fill-rule="evenodd" stroke-width="1.3"/>
  <path transform="translate(.18 -.14)" d="m100 24c8.4 10 22-7 7.4-8.7-4.8-0.61-9 4-7.4 8.7zm25-2.6c-4.7 8-7.3 18 6 18 7.5 0.36 14 9 2.2 7.3-19 1.5-38-0.35-57 0.4 0.24-12 24-4.4 20-16-9-7.9-1.3-21 9.4-22 8.9-1.7 20 2.6 22 12" clip-path="url(#c)" fill="#fff" fill-rule="evenodd" stroke-width="1.3"/>
  <path transform="translate(.18 -.14)" d="m113 22c-3.8 15-25-4.4-7.1-6.1 3.4 0.14 6.7 2.6 7.1 6.1z" clip-path="url(#d)" fill="#231f20" fill-rule="evenodd" stroke-width="1.3"/>
  <path transform="translate(.18 -.14)" d="m3.9 29h64c-6.9 13-23 10-36 9.9-11-1.6-23-1.4-20 13-2.2 66 0.03 132-0.78 198h191v-211c-17-1.6-35 3.9-51-3.5-11-12 16-4.5 23-6.8 13-0.21 26-0.53 38 1.3 2.1 76 2.1 153 0 229-71 2.1-141 2.1-212 0-3-75-0.41-151-1.3-226 0.66-1.8 2.1-3.2 3.9-3.9" clip-path="url(#j)" fill="#231f20" fill-rule="evenodd" stroke-width="1.3"/>
  <path transform="translate(.18 -.14)" d="m81 86c-5.7 12-19 23-29 28-7.4-2.7-24-23-9-22 6.2 3.4 9.8 15 17 5 5.5-5.7 12-17 21-11" clip-path="url(#e)" fill="#231f20" fill-rule="evenodd" stroke-width="1.3"/>
  <path transform="translate(.18 -.14)" d="m173 98c-6 11-21 6.2-31 6.5-14-1.2-29 3.3-43-2.9-5.5-7.5 6.6-8.2 12-7.5 16 0.11 33-0.077 49-0.49 4.6 0.28 9.4 1.3 13 4.4z" clip-path="url(#g)" fill="#231f20" fill-rule="evenodd" stroke-width="1.3"/>
  <path transform="translate(.18 -.14)" d="m81 132c-5.7 12-19 23-29 28-7.4-2.7-24-23-9-22 6.2 3.2 9.8 15 16 5.1 5.3-6.2 12-17 22-11" clip-path="url(#h)" fill="#231f20" fill-rule="evenodd" stroke-width="1.3"/>
  <path transform="translate(.18 -.14)" d="m173 144c-6.2 11-21 6.3-31 6.5-14-1.2-29 3.2-43-2.9-5.5-7.5 6.6-8.2 12-7.5 16 0.11 33-0.077 49-0.49 4.6 0.28 9.4 1.3 13 4.4z" clip-path="url(#b)" fill="#231f20" fill-rule="evenodd" stroke-width="1.3"/>
  <path transform="translate(.18 -.14)" d="m81 176c-6.3 13-18 22-30 29-4.7-5.8-22-19-10-23 8.1 0.58 11 17 19 5.6 5.3-6.2 12-17 22-11" clip-path="url(#f)" fill="#231f20" fill-rule="evenodd" stroke-width="1.3"/>
</svg>
