<svg version="1.1" viewBox="0 0 261 247" xmlns="http://www.w3.org/2000/svg">
  <defs>
    <clipPath id="a">
      <path d="m0 1e3h1280v-1e3h-1280z"/>
    </clipPath>
  </defs>
  <g transform="matrix(1.3 0 0 -1.3 -622 864)">
    <g clip-path="url(#a)">
      <g transform="translate(678,576)">
        <path d="m0 0c2.3-33 2.3-65 0-98-13-3-27-0.42-40-1.3v100c-8.3 2.9 7.9 6.3 11 5.1 9.9-0.31 20-2.9 29-6.4"/>
      </g>
      <g transform="translate(621,582)">
        <path d="m0 0c1.6 5.6 0.3 11-6.6 9.3h-17c0.66-2.8-1.4-8.3 1.1-9.3h23zm26 0v-105h-75v105h15c2.7 7.7-1.5 21 12 17 10 0.025 20 1.4 30-1.2 4.7-4.7-3.5-18 6.4-16l12 0.21z"/>
      </g>
      <g transform="translate(560,582)">
        <path d="m0 0c6 15 18 29 15 46-0.92 15-13 28-28 30-24 3.4-52-10-59-35-4.3-20 7.3-38 18-54 8.3-12 18-23 25-35 10 12 21 26 17 42-4.3 7.6 8.4 4.2 12 5.2m29 1.2c1.1-35 2.5-71 3.7-106-13 2.3-27-5.1-40 0-0.18 21-5.7 41-5.9 62-7.6-1.4-11-16-17-14-16 25-41 45-49 74-5.6 19 4.3 38 19 50 18 16 48 21 67 5.2 15-12 15-33 11-50 0.0092-7.8-7.6-17-6.2-23 6-0.97 12 2.4 18 1.9"/>
        <path d="m0 0c6 15 18 29 15 46-0.92 15-13 28-28 30-24 3.4-52-10-59-35-4.3-20 7.3-38 18-54 8.3-12 18-23 25-35 10 12 21 26 17 42-4.4 7.9 9.1 3.8 12 5.5zm29 1.2c1.1-35 2.5-71 3.7-106-13 2.3-27-5.1-40 0-0.18 21-5.7 41-5.9 62-7.6-1.4-11-16-17-14-16 25-41 45-49 74-5.6 19 4.3 38 19 50 18 16 48 21 67 5.2 15-12 15-33 11-50 0.0092-7.8-7.6-17-6.2-23 5.4-0.88 14 2.5 17 1.8z" fill="none" stroke="#000" stroke-miterlimit="10"/>
      </g>
      <g transform="translate(533,603)">
        <path d="m0 0c11 1 16 16 8.8 24-7.4 7.2-22 5.4-24-5.7-3.8-10 4.4-20 15-18zm-7.5 34c11 3.2 25-3.1 27-16 3.2-12-4.7-25-17-26-12-2.8-28 5.6-28 19-1.2 11 7.3 20 18 22"/>
      </g>
    </g>
  </g>
</svg>
