<svg version="1.1" viewBox="0 0 261 247" xmlns="http://www.w3.org/2000/svg">
  <path d="m259 115c3 43 3 84 0 127-17 3.9-35 0.55-52 1.7v-130c-11-3.8 10-8.2 14-6.6 13 0.4 26 3.8 38 8.3" stroke-width="1.3"/>
  <path d="m185 107c2.1-7.3 0.39-14-8.6-12h-22c0.86 3.6-1.8 11 1.4 12h30zm34 0v136h-98v-136h20c3.5-10-2-27 16-22 13-0.032 26-1.8 39 1.6 6.1 6.1-4.6 23 8.3 21l16-0.27z" stroke-width="1.3"/>
  <path d="m106 107c7.8-20 23-38 20-60-1.2-20-17-36-36-39-31-4.4-68 13-77 46-5.6 26 9.5 49 23 70 11 16 23 30 32 46 13-16 27-34 22-55-5.6-9.9 11-5.5 16-6.8m38-1.6c1.4 46 3.2 92 4.8 138-17-3-35 6.6-52 0-0.23-27-7.4-53-7.7-81-9.9 1.8-14 21-22 18-21-32-53-58-64-96-7.3-25 5.6-49 25-65 23-21 62-27 87-6.8 20 16 20 43 14 65 0.012 10-9.9 22-8.1 30 7.8 1.3 16-3.1 23-2.5" stroke-width="1.3"/>
  <path d="m106 107c7.8-20 23-38 20-60-1.2-20-17-36-36-39-31-4.4-68 13-77 46-5.6 26 9.5 49 23 70 11 16 23 30 32 46 13-16 27-34 22-55-5.7-10 12-4.9 16-7.2zm38-1.6c1.4 46 3.2 92 4.8 138-17-3-35 6.6-52 0-0.23-27-7.4-53-7.7-81-9.9 1.8-14 21-22 18-21-32-53-58-64-96-7.3-25 5.6-49 25-65 23-21 62-27 87-6.8 20 16 20 43 14 65 0.012 10-9.9 22-8.1 30 7 1.1 18-3.2 22-2.3z" fill="none" stroke="#000" stroke-miterlimit="10" stroke-width="1.3"/>
  <path d="m71 80c14-1.3 21-21 11-31-9.6-9.4-29-7-31 7.4-4.9 13 5.7 26 20 23zm-9.8-44c14-4.2 32 4 35 21 4.2 16-6.1 32-22 34-16 3.6-36-7.3-36-25-1.6-14 9.5-26 23-29" clip-path="url(#clipPath191)" stroke-width="1.3"/>
</svg>
