<svg version="1.1" viewBox="0 0 175 260" xmlns="http://www.w3.org/2000/svg">
  <defs>
    <clipPath id="a">
      <path d="m0 1e3h1280v-1e3h-1280z"/>
    </clipPath>
  </defs>
  <g transform="matrix(1.3 0 0 -1.3 -772 789)">
    <g clip-path="url(#a)">
      <g transform="translate(664,602)">
        <path d="m0 0c26 6.4 26-26 8.2-29-8.6-1.3-22 0.93-20 17 0.6 4.9 3.3 9.8 12 12" fill="#231f20" fill-rule="evenodd"/>
      </g>
      <g transform="translate(642,570)">
        <path d="m0 0c-6.6-19-12-39-19-58-5.5 2.2-13 2.9-16 6.5-0.45 3.4 8.7 51 18 55 5.5 2.5 12-2.3 18-3.2" fill="#231f20" fill-rule="evenodd"/>
      </g>
      <g transform="translate(691,532)">
        <path d="m0 0c7.5-1.4 16-1.5 24-3.2 4.3 3.6-1.1 16 5.9 17 9.5-2-4.2-19 7.1-19-0.44-5-4.3-6.9-7.1-9.7-2.5-27-7-56-11-84-1.1-8.6 0.17-19-5.9-26-3.6 32 8.1 70 9.4 107-8.7 4.3-23 2.9-34 5.4-4.3 4.6-6.5 11-12 15-4.5-9.2-5.9-21-11-30 9.1-12 21-21 29-33v-62c-30-3.1-13 33-19 54-4.2 14-39 25-40 47-0.69 11 6.5 22 9.4 31 3.6 11 7.3 41 31 28 11-6.3 14-27 24-37" fill="#231f20" fill-rule="evenodd"/>
      </g>
      <g transform="translate(624,502)">
        <path d="m0 0c5.5-7.5 12-14 18-22-7.7-29-25-49-39-72-24 17 4.2 33 12 53 5.5 14 4.4 27 9.4 41" fill="#231f20" fill-rule="evenodd"/>
      </g>
      <g transform="translate(665,607)">
        <path d="m0 0c29-2.1 23-30 5.5-35-27 3.3-21 29-5.5 35" fill="#231f20" fill-rule="evenodd"/>
      </g>
    </g>
  </g>
</svg>
